<?xml version="1.0" encoding="UTF-8"?><svg id="uuid-70267a56-8d1c-4f1c-971c-298c59bbda46" xmlns="http://www.w3.org/2000/svg" viewBox="0 0 347.74 144"><path d="M0,71.66C0,65.56,4.95,60.61,11.05,60.61h194.23c6.1,0,11.05,4.95,11.05,11.05s-4.95,11.05-11.05,11.05H11.05C4.95,82.71,0,77.76,0,71.66Z" style="fill:#fff; fill-rule:evenodd; stroke-width:0px;"/><path d="M0,101.96c0-6.1,4.95-11.05,11.05-11.05h124.28c6.1,0,11.05,4.95,11.05,11.05s-4.95,11.05-11.05,11.05H11.05C4.95,113.01,0,108.07,0,101.96Z" style="fill:#fff; fill-rule:evenodd; stroke-width:0px;"/><path d="M0,132.27c0-6.1,4.95-11.05,11.05-11.05h325.64c6.1,0,11.05,4.95,11.05,11.05s-4.95,11.05-11.05,11.05H11.05C4.95,143.32,0,138.37,0,132.27Z" style="fill:#fff; fill-rule:evenodd; stroke-width:0px;"/><path d="M0,41.36C0,35.25,4.95,30.3,11.05,30.3h124.28c6.1,0,11.05,4.95,11.05,11.05s-4.95,11.05-11.05,11.05H11.05C4.95,52.41,0,47.46,0,41.36Z" style="fill:#fff; fill-rule:evenodd; stroke-width:0px;"/><path d="M0,11.05C0,4.95,4.95,0,11.05,0h325.64c6.1,0,11.05,4.95,11.05,11.05s-4.95,11.05-11.05,11.05H11.05C4.95,22.1,0,17.16,0,11.05Z" style="fill:#fff; fill-rule:evenodd; stroke-width:0px;"/></svg>