<?xml version="1.0" encoding="UTF-8"?><svg id="uuid-672f875e-b99b-4cbc-8776-78f7434281b1" xmlns="http://www.w3.org/2000/svg" viewBox="0 0 347.74 144"><path d="M0,71.66c0-6.1,4.95-11.05,11.05-11.05h325.64c6.1,0,11.05,4.95,11.05,11.05s-4.95,11.05-11.05,11.05H11.05c-6.1,0-11.05-4.95-11.05-11.05Z" style="fill:#fff; fill-rule:evenodd; stroke-width:0px;"/><path d="M0,101.96c0-6.1,4.95-11.05,11.05-11.05h124.28c6.1,0,11.05,4.95,11.05,11.05s-4.95,11.05-11.05,11.05H11.05c-6.1,0-11.05-4.95-11.05-11.05Z" style="fill:#fff; fill-rule:evenodd; stroke-width:0px;"/><path d="M0,132.27c0-6.1,4.95-11.05,11.05-11.05h124.28c6.1,0,11.05,4.95,11.05,11.05s-4.95,11.05-11.05,11.05H11.05c-6.1,0-11.05-4.95-11.05-11.05Z" style="fill:#fff; fill-rule:evenodd; stroke-width:0px;"/><path d="M0,41.36c0-6.1,4.95-11.05,11.05-11.05h124.28c6.1,0,11.05,4.95,11.05,11.05s-4.95,11.05-11.05,11.05H11.05c-6.1,0-11.05-4.95-11.05-11.05Z" style="fill:#fff; fill-rule:evenodd; stroke-width:0px;"/><path d="M0,11.05C0,4.95,4.95,0,11.05,0h325.64c6.1,0,11.05,4.95,11.05,11.05s-4.95,11.05-11.05,11.05H11.05C4.95,22.1,0,17.16,0,11.05Z" style="fill:#fff; fill-rule:evenodd; stroke-width:0px;"/></svg>