<?xml version="1.0" encoding="UTF-8"?><svg id="uuid-1ac81857-40cc-4708-9f23-607af2671f8a" xmlns="http://www.w3.org/2000/svg" viewBox="0 0 144 1861.99"><path d="M72,1861.66c-6.1,0-11.05-4.95-11.05-11.05v-325.64c0-6.1,4.95-11.05,11.05-11.05s11.05,4.95,11.05,11.05v325.64c0,6.1-4.95,11.05-11.05,11.05Z" style="fill:#fff; fill-rule:evenodd; stroke-width:0px;"/><path d="M102.3,1861.66c-6.1,0-11.05-4.95-11.05-11.05v-124.28c0-6.1,4.95-11.05,11.05-11.05s11.05,4.95,11.05,11.05v124.28c0,6.1-4.95,11.05-11.05,11.05Z" style="fill:#fff; fill-rule:evenodd; stroke-width:0px;"/><path d="M132.61,1861.66c-6.1,0-11.05-4.95-11.05-11.05v-124.28c0-6.1,4.95-11.05,11.05-11.05s11.05,4.95,11.05,11.05v124.28c0,6.1-4.95,11.05-11.05,11.05Z" style="fill:#fff; fill-rule:evenodd; stroke-width:0px;"/><path d="M41.7,1861.66c-6.1,0-11.05-4.95-11.05-11.05v-124.28c0-6.1,4.95-11.05,11.05-11.05s11.05,4.95,11.05,11.05v124.28c0,6.1-4.95,11.05-11.05,11.05Z" style="fill:#fff; fill-rule:evenodd; stroke-width:0px;"/><path d="M11.39,1861.66c-6.1,0-11.05-4.95-11.05-11.05v-325.64c0-6.1,4.95-11.05,11.05-11.05s11.05,4.95,11.05,11.05v325.64c0,6.1-4.95,11.05-11.05,11.05Z" style="fill:#fff; fill-rule:evenodd; stroke-width:0px;"/><path d="M72,347.39c-6.1,0-11.05-4.95-11.05-11.06v-124.27c0-6.11,4.95-11.06,11.05-11.06s11.05,4.95,11.05,11.06v124.27c0,6.11-4.95,11.06-11.05,11.06Z" style="fill:#fff; fill-rule:evenodd; stroke-width:0px;"/><path d="M102.3,347.39c-6.1,0-11.05-4.95-11.05-11.06v-124.27c0-6.11,4.95-11.06,11.05-11.06s11.05,4.95,11.05,11.06v124.27c0,6.11-4.95,11.06-11.05,11.06Z" style="fill:#fff; fill-rule:evenodd; stroke-width:0px;"/><path d="M132.61,347.39c-6.1,0-11.05-4.95-11.05-11.06V10.72c0-6.11,4.95-11.05,11.05-11.05s11.05,4.94,11.05,11.05v325.61c0,6.11-4.95,11.06-11.05,11.06Z" style="fill:#fff; fill-rule:evenodd; stroke-width:0px;"/><path d="M41.7,347.39c-6.1,0-11.05-4.95-11.05-11.06v-124.27c0-6.11,4.95-11.06,11.05-11.06s11.05,4.95,11.05,11.06v124.27c0,6.11-4.95,11.06-11.05,11.06Z" style="fill:#fff; fill-rule:evenodd; stroke-width:0px;"/><path d="M72,146.04c-6.1,0-11.05-4.95-11.05-11.05V10.71c0-6.1,4.95-11.05,11.05-11.05s11.05,4.95,11.05,11.05v124.28c0,6.1-4.95,11.05-11.05,11.05Z" style="fill:#fff; fill-rule:evenodd; stroke-width:0px;"/><path d="M102.3,146.04c-6.1,0-11.05-4.95-11.05-11.05V10.71c0-6.1,4.95-11.05,11.05-11.05s11.05,4.95,11.05,11.05v124.28c0,6.1-4.95,11.05-11.05,11.05Z" style="fill:#fff; fill-rule:evenodd; stroke-width:0px;"/><path d="M41.7,146.04c-6.1,0-11.05-4.95-11.05-11.05V10.71c0-6.1,4.95-11.05,11.05-11.05s11.05,4.95,11.05,11.05v124.28c0,6.1-4.95,11.05-11.05,11.05Z" style="fill:#fff; fill-rule:evenodd; stroke-width:0px;"/><path d="M11.39,347.39c-6.1,0-11.05-4.95-11.05-11.06V10.72C.34,4.61,5.29-.33,11.39-.33s11.05,4.94,11.05,11.05v325.61c0,6.11-4.95,11.06-11.05,11.06Z" style="fill:#fff; fill-rule:evenodd; stroke-width:0px;"/><path d="M72,1481.45c-6.1,0-11.05-4.95-11.05-11.05v-194.23c0-6.1,4.95-11.05,11.05-11.05s11.05,4.95,11.05,11.05v194.23c0,6.1-4.95,11.05-11.05,11.05Z" style="fill:#fff; fill-rule:evenodd; stroke-width:0px;"/><path d="M102.3,1481.45c-6.1,0-11.05-4.95-11.05-11.05v-124.28c0-6.1,4.95-11.05,11.05-11.05s11.05,4.95,11.05,11.05v124.28c0,6.1-4.95,11.05-11.05,11.05Z" style="fill:#fff; fill-rule:evenodd; stroke-width:0px;"/><path d="M132.61,1481.45c-6.1,0-11.05-4.95-11.05-11.05v-325.64c0-6.1,4.95-11.05,11.05-11.05s11.05,4.95,11.05,11.05v325.64c0,6.1-4.95,11.05-11.05,11.05Z" style="fill:#fff; fill-rule:evenodd; stroke-width:0px;"/><path d="M41.7,1481.45c-6.1,0-11.05-4.95-11.05-11.05v-124.28c0-6.1,4.95-11.05,11.05-11.05s11.05,4.95,11.05,11.05v124.28c0,6.1-4.95,11.05-11.05,11.05Z" style="fill:#fff; fill-rule:evenodd; stroke-width:0px;"/><path d="M11.39,1481.45c-6.1,0-11.05-4.95-11.05-11.05v-325.64c0-6.1,4.95-11.05,11.05-11.05s11.05,4.95,11.05,11.05v325.64c0,6.1-4.95,11.05-11.05,11.05Z" style="fill:#fff; fill-rule:evenodd; stroke-width:0px;"/><path d="M72,1110.98c-6.1,0-11.05-4.95-11.05-11.05v-281.97c0-6.11,4.95-11.05,11.05-11.05s11.05,4.94,11.05,11.05v281.97c0,6.1-4.95,11.05-11.05,11.05Z" style="fill:#fff; fill-rule:evenodd; stroke-width:0px;"/><path d="M102.3,1110.98c-6.1,0-11.05-4.95-11.05-11.05v-124.28c0-6.1,4.95-11.05,11.05-11.05s11.05,4.95,11.05,11.05v124.28c0,6.1-4.95,11.05-11.05,11.05Z" style="fill:#fff; fill-rule:evenodd; stroke-width:0px;"/><path d="M132.61,1110.98c-6.1,0-11.05-4.95-11.05-11.05v-130.57c0-6.1,4.95-11.05,11.05-11.05s11.05,4.95,11.05,11.05v130.57c0,6.1-4.95,11.05-11.05,11.05Z" style="fill:#fff; fill-rule:evenodd; stroke-width:0px;"/><path d="M41.7,1110.98c-6.1,0-11.05-4.95-11.05-11.05v-124.28c0-6.1,4.95-11.05,11.05-11.05s11.05,4.95,11.05,11.05v124.28c0,6.1-4.95,11.05-11.05,11.05Z" style="fill:#fff; fill-rule:evenodd; stroke-width:0px;"/><path d="M41.7,907.95c-6.1,0-11.05-4.95-11.05-11.05v-124.28c0-6.1,4.95-11.05,11.05-11.05s11.05,4.95,11.05,11.05v124.28c0,6.1-4.95,11.05-11.05,11.05Z" style="fill:#fff; fill-rule:evenodd; stroke-width:0px;"/><path d="M102.3,907.95c-6.1,0-11.05-4.95-11.05-11.05v-124.28c0-6.1,4.95-11.05,11.05-11.05s11.05,4.95,11.05,11.05v124.28c0,6.1-4.95,11.05-11.05,11.05Z" style="fill:#fff; fill-rule:evenodd; stroke-width:0px;"/><path d="M132.61,907.95c-6.1,0-11.05-4.95-11.05-11.05v-124.28c0-6.1,4.95-11.05,11.05-11.05s11.05,4.95,11.05,11.05v124.28c0,6.1-4.95,11.05-11.05,11.05Z" style="fill:#fff; fill-rule:evenodd; stroke-width:0px;"/><path d="M11.39,1110.98c-6.1,0-11.05-4.95-11.05-11.05v-325.64c0-6.1,4.95-11.05,11.05-11.05s11.05,4.95,11.05,11.05v325.64c0,6.1-4.95,11.05-11.05,11.05Z" style="fill:#fff; fill-rule:evenodd; stroke-width:0px;"/><path d="M72,729.36c-6.1,0-11.05-4.94-11.05-11.05v-281.99c0-6.11,4.95-11.05,11.05-11.05s11.05,4.94,11.05,11.05v281.99c0,6.11-4.95,11.05-11.05,11.05Z" style="fill:#fff; fill-rule:evenodd; stroke-width:0px;"/><path d="M102.3,729.36c-6.1,0-11.05-4.94-11.05-11.05v-124.3c0-6.1,4.95-11.05,11.05-11.05s11.05,4.95,11.05,11.05v124.3c0,6.11-4.95,11.05-11.05,11.05Z" style="fill:#fff; fill-rule:evenodd; stroke-width:0px;"/><path d="M132.61,729.36c-6.1,0-11.05-4.94-11.05-11.05v-130.57c0-6.1,4.95-11.05,11.05-11.05s11.05,4.95,11.05,11.05v130.57c0,6.11-4.95,11.05-11.05,11.05Z" style="fill:#fff; fill-rule:evenodd; stroke-width:0px;"/><path d="M41.7,729.36c-6.1,0-11.05-4.94-11.05-11.05v-124.3c0-6.1,4.95-11.05,11.05-11.05s11.05,4.95,11.05,11.05v124.3c0,6.11-4.95,11.05-11.05,11.05Z" style="fill:#fff; fill-rule:evenodd; stroke-width:0px;"/><path d="M41.7,526.34c-6.1,0-11.05-4.95-11.05-11.06v-124.28c0-6.1,4.95-11.05,11.05-11.05s11.05,4.95,11.05,11.05v124.28c0,6.11-4.95,11.06-11.05,11.06Z" style="fill:#fff; fill-rule:evenodd; stroke-width:0px;"/><path d="M102.3,526.34c-6.1,0-11.05-4.95-11.05-11.06v-124.28c0-6.1,4.95-11.05,11.05-11.05s11.05,4.95,11.05,11.05v124.28c0,6.11-4.95,11.06-11.05,11.06Z" style="fill:#fff; fill-rule:evenodd; stroke-width:0px;"/><path d="M132.61,526.34c-6.1,0-11.05-4.95-11.05-11.06v-124.28c0-6.1,4.95-11.05,11.05-11.05s11.05,4.95,11.05,11.05v124.28c0,6.11-4.95,11.06-11.05,11.06Z" style="fill:#fff; fill-rule:evenodd; stroke-width:0px;"/><path d="M11.39,729.36c-6.1,0-11.05-4.94-11.05-11.05v-325.63c0-6.11,4.95-11.06,11.05-11.06s11.05,4.95,11.05,11.06v325.63c0,6.11-4.95,11.05-11.05,11.05Z" style="fill:#fff; fill-rule:evenodd; stroke-width:0px;"/></svg>