<?xml version="1.0" encoding="UTF-8"?>
<svg id="uuid-1ac81857-40cc-4708-9f23-607af2671f8a" xmlns="http://www.w3.org/2000/svg" version="1.1" viewBox="0 0 144 1862">
  <defs>
    <style>
      .cls-1 {
        fill: #000;
        fill-rule: evenodd;
        stroke-width: 0px;
      }
    </style>
  </defs>
  <path class="cls-1" d="M72,1861.7c-6.1,0-11-4.9-11-11.1v-325.6c0-6.1,5-11.1,11-11.1s11.1,4.9,11.1,11.1v325.6c0,6.1-4.9,11.1-11.1,11.1Z"/>
  <path class="cls-1" d="M102.3,1861.7c-6.1,0-11.1-4.9-11.1-11.1v-124.3c0-6.1,4.9-11.1,11.1-11.1s11.1,4.9,11.1,11.1v124.3c0,6.1-4.9,11.1-11.1,11.1Z"/>
  <path class="cls-1" d="M132.6,1861.7c-6.1,0-11.1-4.9-11.1-11.1v-124.3c0-6.1,4.9-11.1,11.1-11.1s11.1,4.9,11.1,11.1v124.3c0,6.1-4.9,11.1-11.1,11.1Z"/>
  <path class="cls-1" d="M41.7,1861.7c-6.1,0-11-4.9-11-11.1v-124.3c0-6.1,5-11.1,11-11.1s11,4.9,11,11.1v124.3c0,6.1-5,11.1-11,11.1Z"/>
  <path class="cls-1" d="M11.4,1861.7c-6.1,0-11.1-4.9-11.1-11.1v-325.6c0-6.1,4.9-11.1,11.1-11.1s11.1,4.9,11.1,11.1v325.6c0,6.1-4.9,11.1-11.1,11.1Z"/>
  <path class="cls-1" d="M72,347.4c-6.1,0-11-5-11-11.1v-124.3c0-6.1,5-11.1,11-11.1s11.1,4.9,11.1,11.1v124.3c0,6.1-4.9,11.1-11.1,11.1Z"/>
  <path class="cls-1" d="M102.3,347.4c-6.1,0-11.1-5-11.1-11.1v-124.3c0-6.1,4.9-11.1,11.1-11.1s11.1,4.9,11.1,11.1v124.3c0,6.1-4.9,11.1-11.1,11.1Z"/>
  <path class="cls-1" d="M132.6,347.4c-6.1,0-11.1-5-11.1-11.1V10.7c0-6.1,4.9-11.1,11.1-11.1s11.1,4.9,11.1,11.1v325.6c0,6.1-4.9,11.1-11.1,11.1h0Z"/>
  <path class="cls-1" d="M41.7,347.4c-6.1,0-11-5-11-11.1v-124.3c0-6.1,5-11.1,11-11.1s11,4.9,11,11.1v124.3c0,6.1-5,11.1-11,11.1Z"/>
  <path class="cls-1" d="M72,146c-6.1,0-11-4.9-11-11.1V10.7c0-6.1,5-11.1,11-11.1s11.1,4.9,11.1,11.1v124.3c0,6.1-4.9,11.1-11.1,11.1h0Z"/>
  <path class="cls-1" d="M102.3,146c-6.1,0-11.1-4.9-11.1-11.1V10.7c0-6.1,4.9-11.1,11.1-11.1s11.1,4.9,11.1,11.1v124.3c0,6.1-4.9,11.1-11.1,11.1h0Z"/>
  <path class="cls-1" d="M41.7,146c-6.1,0-11-4.9-11-11.1V10.7c0-6.1,5-11.1,11-11.1s11,4.9,11,11.1v124.3c0,6.1-5,11.1-11,11.1h0Z"/>
  <path class="cls-1" d="M11.4,347.4c-6.1,0-11.1-5-11.1-11.1V10.7c0-6.1,4.9-11.1,11.1-11.1s11.1,4.9,11.1,11.1v325.6c0,6.1-4.9,11.1-11.1,11.1h0Z"/>
  <path class="cls-1" d="M72,1481.4c-6.1,0-11-4.9-11-11.1v-194.2c0-6.1,5-11.1,11-11.1s11.1,4.9,11.1,11.1v194.2c0,6.1-4.9,11.1-11.1,11.1Z"/>
  <path class="cls-1" d="M102.3,1481.4c-6.1,0-11.1-4.9-11.1-11.1v-124.3c0-6.1,4.9-11.1,11.1-11.1s11.1,4.9,11.1,11.1v124.3c0,6.1-4.9,11.1-11.1,11.1Z"/>
  <path class="cls-1" d="M132.6,1481.4c-6.1,0-11.1-4.9-11.1-11.1v-325.6c0-6.1,4.9-11.1,11.1-11.1s11.1,4.9,11.1,11.1v325.6c0,6.1-4.9,11.1-11.1,11.1Z"/>
  <path class="cls-1" d="M41.7,1481.4c-6.1,0-11-4.9-11-11.1v-124.3c0-6.1,5-11.1,11-11.1s11,4.9,11,11.1v124.3c0,6.1-5,11.1-11,11.1Z"/>
  <path class="cls-1" d="M11.4,1481.4c-6.1,0-11.1-4.9-11.1-11.1v-325.6c0-6.1,4.9-11.1,11.1-11.1s11.1,4.9,11.1,11.1v325.6c0,6.1-4.9,11.1-11.1,11.1Z"/>
  <path class="cls-1" d="M72,1111c-6.1,0-11-4.9-11-11.1v-282c0-6.1,5-11,11-11s11.1,4.9,11.1,11v282c0,6.1-4.9,11.1-11.1,11.1Z"/>
  <path class="cls-1" d="M102.3,1111c-6.1,0-11.1-4.9-11.1-11.1v-124.3c0-6.1,4.9-11,11.1-11s11.1,5,11.1,11v124.3c0,6.1-4.9,11.1-11.1,11.1Z"/>
  <path class="cls-1" d="M132.6,1111c-6.1,0-11.1-4.9-11.1-11.1v-130.6c0-6.1,4.9-11,11.1-11s11.1,5,11.1,11v130.6c0,6.1-4.9,11.1-11.1,11.1Z"/>
  <path class="cls-1" d="M41.7,1111c-6.1,0-11-4.9-11-11.1v-124.3c0-6.1,5-11,11-11s11,5,11,11v124.3c0,6.1-5,11.1-11,11.1Z"/>
  <path class="cls-1" d="M41.7,908c-6.1,0-11-5-11-11v-124.3c0-6.1,5-11,11-11s11,5,11,11v124.3c0,6.1-5,11-11,11Z"/>
  <path class="cls-1" d="M102.3,908c-6.1,0-11.1-5-11.1-11v-124.3c0-6.1,4.9-11,11.1-11s11.1,5,11.1,11v124.3c0,6.1-4.9,11-11.1,11Z"/>
  <path class="cls-1" d="M132.6,908c-6.1,0-11.1-5-11.1-11v-124.3c0-6.1,4.9-11,11.1-11s11.1,5,11.1,11v124.3c0,6.1-4.9,11-11.1,11Z"/>
  <path class="cls-1" d="M11.4,1111c-6.1,0-11.1-4.9-11.1-11.1v-325.6c0-6.1,4.9-11,11.1-11s11.1,5,11.1,11v325.6c0,6.1-4.9,11.1-11.1,11.1Z"/>
  <path class="cls-1" d="M72,729.4c-6.1,0-11-4.9-11-11v-282c0-6.1,5-11,11-11s11.1,4.9,11.1,11v282c0,6.1-4.9,11-11.1,11Z"/>
  <path class="cls-1" d="M102.3,729.4c-6.1,0-11.1-4.9-11.1-11v-124.3c0-6.1,4.9-11,11.1-11s11.1,5,11.1,11v124.3c0,6.1-4.9,11-11.1,11Z"/>
  <path class="cls-1" d="M132.6,729.4c-6.1,0-11.1-4.9-11.1-11v-130.6c0-6.1,4.9-11,11.1-11s11.1,5,11.1,11v130.6c0,6.1-4.9,11-11.1,11Z"/>
  <path class="cls-1" d="M41.7,729.4c-6.1,0-11-4.9-11-11v-124.3c0-6.1,5-11,11-11s11,5,11,11v124.3c0,6.1-5,11-11,11Z"/>
  <path class="cls-1" d="M41.7,526.3c-6.1,0-11-5-11-11.1v-124.3c0-6.1,5-11,11-11s11,5,11,11v124.3c0,6.1-5,11.1-11,11.1Z"/>
  <path class="cls-1" d="M102.3,526.3c-6.1,0-11.1-5-11.1-11.1v-124.3c0-6.1,4.9-11,11.1-11s11.1,5,11.1,11v124.3c0,6.1-4.9,11.1-11.1,11.1Z"/>
  <path class="cls-1" d="M132.6,526.3c-6.1,0-11.1-5-11.1-11.1v-124.3c0-6.1,4.9-11,11.1-11s11.1,5,11.1,11v124.3c0,6.1-4.9,11.1-11.1,11.1Z"/>
  <path class="cls-1" d="M11.4,729.4c-6.1,0-11.1-4.9-11.1-11v-325.6c0-6.1,4.9-11.1,11.1-11.1s11.1,5,11.1,11.1v325.6c0,6.1-4.9,11-11.1,11Z"/>
</svg>