<svg width="1862" height="144" viewBox="0 0 1862 144" fill="none" xmlns="http://www.w3.org/2000/svg">
<path fill-rule="evenodd" clip-rule="evenodd" d="M0 71.6601C0 65.5565 4.94793 60.6086 11.0515 60.6086H336.689C342.793 60.6086 347.741 65.5565 347.741 71.6601C347.741 77.7637 342.793 82.7116 336.689 82.7116H11.0515C4.94793 82.7116 0 77.7637 0 71.6601Z" fill="white"/>
<path fill-rule="evenodd" clip-rule="evenodd" d="M0 101.964C0 95.8603 4.94793 90.9124 11.0515 90.9124H135.331C141.434 90.9124 146.382 95.8603 146.382 101.964C146.382 108.067 141.434 113.015 135.331 113.015H11.0515C4.94793 113.015 0 108.067 0 101.964Z" fill="white"/>
<path fill-rule="evenodd" clip-rule="evenodd" d="M0 132.27C0 126.166 4.94793 121.218 11.0515 121.218H135.331C141.434 121.218 146.382 126.166 146.382 132.27C146.382 138.373 141.434 143.321 135.331 143.321H11.0515C4.94793 143.321 0 138.373 0 132.27Z" fill="white"/>
<path fill-rule="evenodd" clip-rule="evenodd" d="M0 41.3557C0 35.2521 4.94793 30.3042 11.0515 30.3042H135.331C141.434 30.3042 146.382 35.2521 146.382 41.3557C146.382 47.4593 141.434 52.4072 135.331 52.4072H11.0515C4.94793 52.4072 0 47.4593 0 41.3557Z" fill="white"/>
<path fill-rule="evenodd" clip-rule="evenodd" d="M0 11.0517C0 4.94811 4.94793 0.000183105 11.0515 0.000183105H336.689C342.793 0.000183105 347.741 4.94811 347.741 11.0517C347.741 17.1553 342.793 22.1032 336.689 22.1032H11.0515C4.94793 22.1032 0 17.1553 0 11.0517Z" fill="white"/>
<path fill-rule="evenodd" clip-rule="evenodd" d="M1514.27 71.6601C1514.27 65.5565 1519.22 60.6086 1525.33 60.6086H1649.6C1655.71 60.6086 1660.66 65.5565 1660.66 71.6601C1660.66 77.7637 1655.71 82.7116 1649.6 82.7116H1525.33C1519.22 82.7116 1514.27 77.7637 1514.27 71.6601Z" fill="white"/>
<path fill-rule="evenodd" clip-rule="evenodd" d="M1514.27 101.964C1514.27 95.8603 1519.22 90.9124 1525.33 90.9124H1649.6C1655.71 90.9124 1660.66 95.8603 1660.66 101.964C1660.66 108.067 1655.71 113.015 1649.6 113.015H1525.33C1519.22 113.015 1514.27 108.067 1514.27 101.964Z" fill="white"/>
<path fill-rule="evenodd" clip-rule="evenodd" d="M1514.27 132.27C1514.27 126.166 1519.22 121.218 1525.33 121.218H1850.94C1857.05 121.218 1861.99 126.166 1861.99 132.27C1861.99 138.373 1857.05 143.321 1850.94 143.321H1525.33C1519.22 143.321 1514.27 138.373 1514.27 132.27Z" fill="white"/>
<path fill-rule="evenodd" clip-rule="evenodd" d="M1514.27 41.3557C1514.27 35.2521 1519.22 30.3042 1525.33 30.3042H1649.6C1655.71 30.3042 1660.66 35.2521 1660.66 41.3557C1660.66 47.4593 1655.71 52.4072 1649.6 52.4072H1525.33C1519.22 52.4072 1514.27 47.4593 1514.27 41.3557Z" fill="white"/>
<path fill-rule="evenodd" clip-rule="evenodd" d="M1715.62 71.6604C1715.62 65.5568 1720.57 60.6089 1726.67 60.6089H1850.95C1857.05 60.6089 1862 65.5568 1862 71.6604C1862 77.764 1857.05 82.7119 1850.95 82.7119H1726.67C1720.57 82.7119 1715.62 77.764 1715.62 71.6604Z" fill="white"/>
<path fill-rule="evenodd" clip-rule="evenodd" d="M1715.62 101.964C1715.62 95.8602 1720.57 90.9122 1726.67 90.9122H1850.95C1857.05 90.9122 1862 95.8602 1862 101.964C1862 108.067 1857.05 113.015 1850.95 113.015H1726.67C1720.57 113.015 1715.62 108.067 1715.62 101.964Z" fill="white"/>
<path fill-rule="evenodd" clip-rule="evenodd" d="M1715.62 41.3559C1715.62 35.2524 1720.57 30.3044 1726.67 30.3044H1850.95C1857.05 30.3044 1862 35.2524 1862 41.3559C1862 47.4595 1857.05 52.4074 1850.95 52.4074H1726.67C1720.57 52.4074 1715.62 47.4595 1715.62 41.3559Z" fill="white"/>
<path fill-rule="evenodd" clip-rule="evenodd" d="M1514.27 11.0519C1514.27 4.94835 1519.22 0.000427246 1525.33 0.000427246H1850.94C1857.05 0.000427246 1861.99 4.94835 1861.99 11.0519C1861.99 17.1555 1857.05 22.1034 1850.94 22.1034H1525.33C1519.22 22.1034 1514.27 17.1555 1514.27 11.0519Z" fill="white"/>
<path fill-rule="evenodd" clip-rule="evenodd" d="M380.212 71.6604C380.212 65.5568 385.16 60.6089 391.263 60.6089H585.489C591.592 60.6089 596.54 65.5568 596.54 71.6604C596.54 77.764 591.592 82.7119 585.489 82.7119H391.263C385.16 82.7119 380.212 77.764 380.212 71.6604Z" fill="white"/>
<path fill-rule="evenodd" clip-rule="evenodd" d="M380.212 101.964C380.212 95.8602 385.16 90.9122 391.263 90.9122H515.543C521.646 90.9122 526.594 95.8602 526.594 101.964C526.594 108.067 521.646 113.015 515.543 113.015H391.263C385.16 113.015 380.212 108.067 380.212 101.964Z" fill="white"/>
<path fill-rule="evenodd" clip-rule="evenodd" d="M380.212 132.27C380.212 126.166 385.16 121.218 391.263 121.218H716.901C723.004 121.218 727.952 126.166 727.952 132.27C727.952 138.373 723.004 143.321 716.901 143.321H391.263C385.16 143.321 380.212 138.373 380.212 132.27Z" fill="white"/>
<path fill-rule="evenodd" clip-rule="evenodd" d="M380.212 41.3559C380.212 35.2524 385.16 30.3044 391.263 30.3044H515.543C521.646 30.3044 526.594 35.2524 526.594 41.3559C526.594 47.4595 521.646 52.4074 515.543 52.4074H391.263C385.16 52.4074 380.212 47.4595 380.212 41.3559Z" fill="white"/>
<path fill-rule="evenodd" clip-rule="evenodd" d="M380.212 11.0521C380.212 4.94848 385.16 0.000549316 391.263 0.000549316H716.901C723.004 0.000549316 727.952 4.94848 727.952 11.0521C727.952 17.1556 723.004 22.1036 716.901 22.1036H391.263C385.16 22.1036 380.212 17.1556 380.212 11.0521Z" fill="white"/>
<path fill-rule="evenodd" clip-rule="evenodd" d="M750.677 71.6601C750.677 65.5565 755.625 60.6086 761.729 60.6086H1043.7C1049.81 60.6086 1054.75 65.5565 1054.75 71.6601C1054.75 77.7637 1049.81 82.7116 1043.7 82.7116H761.729C755.625 82.7116 750.677 77.7637 750.677 71.6601Z" fill="white"/>
<path fill-rule="evenodd" clip-rule="evenodd" d="M750.677 101.964C750.677 95.8603 755.625 90.9124 761.729 90.9124H886.008C892.111 90.9124 897.059 95.8603 897.059 101.964C897.059 108.067 892.111 113.015 886.008 113.015H761.729C755.625 113.015 750.677 108.067 750.677 101.964Z" fill="white"/>
<path fill-rule="evenodd" clip-rule="evenodd" d="M750.677 132.27C750.677 126.166 755.625 121.218 761.729 121.218H892.297C898.401 121.218 903.349 126.166 903.349 132.27C903.349 138.373 898.401 143.321 892.297 143.321H761.729C755.625 143.321 750.677 138.373 750.677 132.27Z" fill="white"/>
<path fill-rule="evenodd" clip-rule="evenodd" d="M750.677 41.3557C750.677 35.2521 755.625 30.3042 761.729 30.3042H886.008C892.111 30.3042 897.059 35.2521 897.059 41.3557C897.059 47.4593 892.111 52.4072 886.008 52.4072H761.729C755.625 52.4072 750.677 47.4593 750.677 41.3557Z" fill="white"/>
<path fill-rule="evenodd" clip-rule="evenodd" d="M953.706 41.3559C953.706 35.2524 958.654 30.3044 964.758 30.3044H1089.04C1095.14 30.3044 1100.09 35.2524 1100.09 41.3559C1100.09 47.4595 1095.14 52.4074 1089.04 52.4074H964.758C958.654 52.4074 953.706 47.4595 953.706 41.3559Z" fill="white"/>
<path fill-rule="evenodd" clip-rule="evenodd" d="M953.706 101.964C953.706 95.8602 958.654 90.9122 964.758 90.9122H1089.04C1095.14 90.9122 1100.09 95.8602 1100.09 101.964C1100.09 108.067 1095.14 113.015 1089.04 113.015H964.758C958.654 113.015 953.706 108.067 953.706 101.964Z" fill="white"/>
<path fill-rule="evenodd" clip-rule="evenodd" d="M953.706 132.27C953.706 126.166 958.654 121.218 964.758 121.218H1089.04C1095.14 121.218 1100.09 126.166 1100.09 132.27C1100.09 138.373 1095.14 143.321 1089.04 143.321H964.758C958.654 143.321 953.706 138.373 953.706 132.27Z" fill="white"/>
<path fill-rule="evenodd" clip-rule="evenodd" d="M750.677 11.0519C750.677 4.94835 755.625 0.000427246 761.729 0.000427246H1087.37C1093.47 0.000427246 1098.42 4.94835 1098.42 11.0519C1098.42 17.1555 1093.47 22.1034 1087.37 22.1034H761.729C755.625 22.1034 750.677 17.1555 750.677 11.0519Z" fill="white"/>
<path fill-rule="evenodd" clip-rule="evenodd" d="M1132.3 71.6604C1132.3 65.5568 1137.24 60.6089 1143.35 60.6089H1425.34C1431.45 60.6089 1436.39 65.5568 1436.39 71.6604C1436.39 77.764 1431.45 82.7119 1425.34 82.7119H1143.35C1137.24 82.7119 1132.3 77.764 1132.3 71.6604Z" fill="white"/>
<path fill-rule="evenodd" clip-rule="evenodd" d="M1132.3 101.964C1132.3 95.8602 1137.24 90.9122 1143.35 90.9122H1267.65C1273.75 90.9122 1278.7 95.8602 1278.7 101.964C1278.7 108.067 1273.75 113.015 1267.65 113.015H1143.35C1137.24 113.015 1132.3 108.067 1132.3 101.964Z" fill="white"/>
<path fill-rule="evenodd" clip-rule="evenodd" d="M1132.3 132.27C1132.3 126.166 1137.24 121.218 1143.35 121.218H1273.92C1280.02 121.218 1284.97 126.166 1284.97 132.27C1284.97 138.373 1280.02 143.321 1273.92 143.321H1143.35C1137.24 143.321 1132.3 138.373 1132.3 132.27Z" fill="white"/>
<path fill-rule="evenodd" clip-rule="evenodd" d="M1132.3 41.3559C1132.3 35.2524 1137.24 30.3044 1143.35 30.3044H1267.65C1273.75 30.3044 1278.7 35.2524 1278.7 41.3559C1278.7 47.4595 1273.75 52.4074 1267.65 52.4074H1143.35C1137.24 52.4074 1132.3 47.4595 1132.3 41.3559Z" fill="white"/>
<path fill-rule="evenodd" clip-rule="evenodd" d="M1335.32 41.3557C1335.32 35.2521 1340.27 30.3042 1346.38 30.3042H1470.66C1476.76 30.3042 1481.71 35.2521 1481.71 41.3557C1481.71 47.4593 1476.76 52.4072 1470.66 52.4072H1346.38C1340.27 52.4072 1335.32 47.4593 1335.32 41.3557Z" fill="white"/>
<path fill-rule="evenodd" clip-rule="evenodd" d="M1335.32 101.964C1335.32 95.8603 1340.27 90.9124 1346.38 90.9124H1470.66C1476.76 90.9124 1481.71 95.8603 1481.71 101.964C1481.71 108.067 1476.76 113.015 1470.66 113.015H1346.38C1340.27 113.015 1335.32 108.067 1335.32 101.964Z" fill="white"/>
<path fill-rule="evenodd" clip-rule="evenodd" d="M1335.32 132.27C1335.32 126.166 1340.27 121.218 1346.38 121.218H1470.66C1476.76 121.218 1481.71 126.166 1481.71 132.27C1481.71 138.373 1476.76 143.321 1470.66 143.321H1346.38C1340.27 143.321 1335.32 138.373 1335.32 132.27Z" fill="white"/>
<path fill-rule="evenodd" clip-rule="evenodd" d="M1132.3 11.0519C1132.3 4.94835 1137.24 0.000427246 1143.35 0.000427246H1468.98C1475.09 0.000427246 1480.04 4.94835 1480.04 11.0519C1480.04 17.1555 1475.09 22.1034 1468.98 22.1034H1143.35C1137.24 22.1034 1132.3 17.1555 1132.3 11.0519Z" fill="white"/>
</svg>
