<?xml version="1.0" encoding="UTF-8"?><svg id="uuid-41d56899-e6c9-45b5-b685-a9d68fffcdcc" xmlns="http://www.w3.org/2000/svg" viewBox="0 0 347.74 144"><path d="M0,71.66c0-6.1,4.95-11.05,11.06-11.05h124.27c6.11,0,11.06,4.95,11.06,11.05s-4.95,11.05-11.06,11.05H11.07C4.96,82.71,0,77.76,0,71.66Z" style="fill:#fff; fill-rule:evenodd; stroke-width:0px;"/><path d="M0,101.96c0-6.1,4.95-11.05,11.06-11.05h124.27c6.11,0,11.06,4.95,11.06,11.05s-4.95,11.05-11.06,11.05H11.07C4.96,113.01,0,108.07,0,101.96Z" style="fill:#fff; fill-rule:evenodd; stroke-width:0px;"/><path d="M0,132.27c0-6.1,4.95-11.05,11.06-11.05h325.61c6.11,0,11.05,4.95,11.05,11.05s-4.94,11.05-11.05,11.05H11.07C4.96,143.32,0,138.37,0,132.27Z" style="fill:#fff; fill-rule:evenodd; stroke-width:0px;"/><path d="M0,41.36C0,35.25,4.96,30.3,11.07,30.3h124.27c6.11,0,11.06,4.95,11.06,11.05s-4.95,11.05-11.06,11.05H11.07C4.96,52.41,0,47.46,0,41.36Z" style="fill:#fff; fill-rule:evenodd; stroke-width:0px;"/><path d="M201.36,71.66c0-6.1,4.95-11.05,11.05-11.05h124.28c6.1,0,11.05,4.95,11.05,11.05s-4.95,11.05-11.05,11.05h-124.28c-6.1,0-11.05-4.95-11.05-11.05Z" style="fill:#fff; fill-rule:evenodd; stroke-width:0px;"/><path d="M201.36,101.96c0-6.1,4.95-11.05,11.05-11.05h124.28c6.1,0,11.05,4.95,11.05,11.05s-4.95,11.05-11.05,11.05h-124.28c-6.1,0-11.05-4.95-11.05-11.05Z" style="fill:#fff; fill-rule:evenodd; stroke-width:0px;"/><path d="M201.36,41.36c0-6.1,4.95-11.05,11.05-11.05h124.28c6.1,0,11.05,4.95,11.05,11.05s-4.95,11.05-11.05,11.05h-124.28c-6.1,0-11.05-4.95-11.05-11.05Z" style="fill:#fff; fill-rule:evenodd; stroke-width:0px;"/><path d="M0,11.05C0,4.95,4.96,0,11.07,0h325.61c6.11,0,11.05,4.95,11.05,11.05s-4.94,11.05-11.05,11.05H11.07C4.96,22.1,0,17.16,0,11.05Z" style="fill:#fff; fill-rule:evenodd; stroke-width:0px;"/></svg>