<?xml version="1.0" standalone="no"?>
<!DOCTYPE svg PUBLIC "-//W3C//DTD SVG 20010904//EN"
 "http://www.w3.org/TR/2001/REC-SVG-20010904/DTD/svg10.dtd">
<svg version="1.0" xmlns="http://www.w3.org/2000/svg"
 width="600.000000pt" height="600.000000pt" viewBox="0 0 600.000000 600.000000"
 preserveAspectRatio="xMidYMid meet">
<metadata>
Created by potrace 1.14, written by Peter Selinger 2001-2017
</metadata>
<g transform="translate(0.000000,600.000000) scale(0.100000,-0.100000)"
fill="#000000" stroke="none">
<path d="M417 3368 c-2 -2509 -3 -2636 -21 -2703 -26 -102 -79 -206 -136 -268
l-51 -55 178 -123 c98 -67 211 -145 251 -173 l72 -50 51 50 c140 136 235 363
269 634 7 56 10 845 10 2340 0 1240 4 2249 9 2242 4 -8 397 -931 872 -2053
l864 -2039 184 3 184 2 911 2059 911 2060 5 -2320 c6 -2498 3 -2322 54 -2521
40 -152 128 -313 225 -407 l51 -50 72 50 c40 28 153 106 251 173 l178 123 -51
55 c-57 62 -110 166 -136 268 -18 67 -19 194 -21 2703 l-3 2632 -483 0 -483 0
-813 -1890 c-448 -1040 -817 -1893 -821 -1895 -4 -2 -364 848 -800 1890 l-793
1895 -494 0 -493 0 -3 -2632z"/>
</g>
</svg>
