<svg width="603" height="173" viewBox="0 0 603 173" fill="none" xmlns="http://www.w3.org/2000/svg">
<g clip-path="url(#clip0_16_424)">
<path fill-rule="evenodd" clip-rule="evenodd" d="M226.715 102.629V76.3287H169.687H129.499V102.629V111.202V137.494V146.357V172.658H169.687H226.715V146.357H169.687V137.494H226.715V111.202H169.687V102.629H226.715Z" fill="black"/>
<path fill-rule="evenodd" clip-rule="evenodd" d="M292.307 76.3287H235.279V172.658H275.468V137.494H282.625L292.307 172.658H332.495L322.813 137.494H332.495V76.3287H292.307ZM292.307 111.202H275.468V102.638H292.307V111.202Z" fill="black"/>
<path fill-rule="evenodd" clip-rule="evenodd" d="M398.089 76.3287H341.062V172.658H381.25V137.494H388.407L398.089 172.658H438.278L428.595 137.494H438.278V76.3287H398.089ZM398.089 111.202H381.25V102.638H398.089V111.202Z" fill="black"/>
<path fill-rule="evenodd" clip-rule="evenodd" d="M503.87 76.3287H446.842V172.658H544.058V76.3287H503.87ZM503.87 146.357H487.03V102.629H503.87V146.357Z" fill="black"/>
<path fill-rule="evenodd" clip-rule="evenodd" d="M602.86 47.6734L552.622 0.0975342V28.1722H49.3095H0.257812V67.7633V76.3281V102.628V172.657H49.3095V102.628H120.814V76.3281H49.3095V67.7633H552.622V95.2408L602.86 47.6734Z" fill="black"/>
</g>
<defs>
<clipPath id="clip0_16_424">
<rect width="602.602" height="172.56" fill="white" transform="translate(0.257812 0.0969238)"/>
</clipPath>
</defs>
</svg>
