<svg width="754" height="278" viewBox="0 0 754 278" fill="none" xmlns="http://www.w3.org/2000/svg">
<path d="M742.131 167.801L752.681 149.528C753.364 148.349 753.364 146.906 752.681 145.727L702.94 59.5721C702.257 58.3931 701.001 57.6641 699.651 57.6641H600.138C598.773 57.6641 597.532 58.3931 596.849 59.5721L585.477 79.2726C584.018 81.8011 580.357 81.8011 578.898 79.2726L567.526 59.5721C566.843 58.3931 565.587 57.6641 564.237 57.6641H464.724C463.359 57.6641 462.118 58.3931 461.435 59.5721L448.278 82.344C446.82 84.8725 443.159 84.8725 441.7 82.344L428.544 59.5721C427.861 58.3931 426.604 57.6641 425.254 57.6641H325.742C324.376 57.6641 323.135 58.3931 322.453 59.5721L311.235 78.9934C309.777 81.5219 306.115 81.5219 304.657 78.9934L293.44 59.5721C292.757 58.3931 291.5 57.6641 290.151 57.6641H190.638C189.273 57.6641 188.031 58.3931 187.349 59.5721L173.339 83.8332C172.656 85.0121 172.656 86.4548 173.339 87.6337L157.11 59.5721C156.428 58.3931 155.171 57.6641 153.821 57.6641H54.3084C52.9431 57.6641 51.7019 58.3931 51.0193 59.5721L1.26297 145.727C0.580313 146.906 0.580313 148.349 1.26297 149.528L11.8131 167.801L1.26297 186.09C0.580313 187.269 0.580313 188.711 1.26297 189.89L51.0193 276.045C51.7019 277.224 52.9586 277.953 54.3084 277.953H290.12C291.485 277.953 292.726 277.224 293.409 276.045L304.626 256.624C306.084 254.096 309.746 254.096 311.204 256.624L322.422 276.045C323.104 277.224 324.361 277.953 325.711 277.953H699.635C701.001 277.953 702.242 277.224 702.925 276.045L752.681 189.89C753.364 188.711 753.364 187.269 752.681 186.09L742.131 167.817V167.801ZM589.542 93.9317L603.117 70.4306C603.8 69.2517 605.057 68.5226 606.406 68.5226H693.367C694.733 68.5226 695.974 69.2517 696.657 70.4306L740.145 145.727C740.828 146.906 740.828 148.349 740.145 149.528L696.657 224.824C695.974 226.003 694.717 226.732 693.367 226.732H607.554C606.158 226.732 604.87 225.956 604.203 224.731L581.055 181.591C579.705 179.063 581.52 176.007 584.391 175.991L628.065 175.867C630.982 175.867 632.813 172.687 631.354 170.159L589.542 97.7322C588.859 96.5533 588.859 95.1106 589.542 93.9317ZM452.328 97.0031L467.672 70.4306C468.355 69.2517 469.611 68.5226 470.961 68.5226H557.922C559.288 68.5226 560.529 69.2517 561.211 70.4306L612.566 159.362C614.024 161.891 612.209 165.055 609.277 165.071L566.269 165.195C563.399 165.195 561.568 168.266 562.934 170.795L589.945 221.148C591.31 223.676 589.464 226.748 586.594 226.748H549.218C547.822 226.748 546.534 225.972 545.867 224.746L519.29 175.216C519.011 174.688 518.856 174.099 518.84 173.494L518.747 168.84C518.701 166.746 516.963 165.071 514.868 165.117L507.902 165.257C505.063 165.319 503.279 168.344 504.629 170.857L531.625 221.163C532.99 223.692 531.144 226.763 528.273 226.763H470.961C469.596 226.763 468.355 226.034 467.672 224.855L442.755 181.7C441.297 179.171 443.112 176.007 446.044 175.991L489.098 175.867C492.015 175.867 493.846 172.687 492.387 170.159L452.343 100.804C451.661 99.6247 451.661 98.182 452.343 97.0031H452.328ZM315.285 93.637L328.69 70.4151C329.372 69.2362 330.629 68.5071 331.979 68.5071H418.94C420.305 68.5071 421.546 69.2362 422.229 70.4151L473.583 159.347C475.042 161.875 473.226 165.04 470.294 165.055L427.271 165.179C424.401 165.179 422.57 168.251 423.936 170.779L450.947 221.132C452.312 223.661 450.466 226.732 447.596 226.732H410.22C408.824 226.732 407.536 225.956 406.869 224.731L380.292 175.2C380.013 174.673 379.858 174.083 379.842 173.478L379.749 168.809C379.703 166.715 377.965 165.04 375.87 165.086L368.889 165.226C366.049 165.288 364.265 168.313 365.615 170.826L392.611 221.132C393.976 223.661 392.13 226.732 389.26 226.732H331.948C330.582 226.732 329.341 226.003 328.659 224.824L315.254 201.602C314.571 200.423 314.571 198.981 315.254 197.802L343.134 149.512C343.817 148.333 343.817 146.89 343.134 145.712L315.254 97.4219C314.571 96.243 314.571 94.8004 315.254 93.6214L315.285 93.637ZM179.576 94.6918L193.586 70.4306C194.268 69.2517 195.525 68.5226 196.875 68.5226H283.836C285.201 68.5226 286.442 69.2517 287.125 70.4306L312.104 113.694C313.562 116.223 311.732 119.403 308.815 119.403H252.325C250.231 119.403 248.524 121.109 248.524 123.203V126.461C248.524 128.555 250.231 130.261 252.325 130.261H319.474C320.839 130.261 322.08 130.99 322.763 132.169L330.598 145.743C331.281 146.922 331.281 148.364 330.598 149.543L322.763 163.116C322.08 164.295 320.823 165.024 319.474 165.024H252.325C250.231 165.024 248.524 166.731 248.524 168.825V172.082C248.524 174.177 250.231 175.883 252.325 175.883H308.815C311.747 175.883 313.578 179.047 312.104 181.591L287.125 224.855C286.442 226.034 285.186 226.763 283.836 226.763H194.873L170.655 181.607C169.305 179.078 171.12 176.022 173.99 176.007L217.665 175.883C220.582 175.883 222.412 172.703 220.954 170.174L179.576 98.5078C178.893 97.3289 178.893 95.8862 179.576 94.7073V94.6918ZM13.799 149.528C13.1164 148.349 13.1164 146.906 13.799 145.727L57.2873 70.4306C57.97 69.2517 59.2267 68.5226 60.5765 68.5226H147.538C148.903 68.5226 150.144 69.2517 150.827 70.4306L175.806 113.694C177.264 116.223 175.433 119.403 172.517 119.403H134.148C132.054 119.403 130.347 121.109 130.347 123.203V126.461C130.347 128.555 132.054 130.261 134.148 130.261H185.115V129.812L202.181 159.362C203.639 161.891 201.824 165.055 198.892 165.071L155.885 165.195C153.014 165.195 151.184 168.266 152.549 170.795L179.56 221.148C180.926 223.676 179.079 226.748 176.209 226.748H60.5765C59.2111 226.748 57.97 226.018 57.2873 224.84L13.799 149.528Z" fill="black"/>
<path d="M538.082 119.14H512.997C510.905 119.14 509.21 120.846 509.21 122.95V126.216C509.21 128.321 510.905 130.027 512.997 130.027H538.082C540.174 130.027 541.869 128.321 541.869 126.216V122.95C541.869 120.846 540.174 119.14 538.082 119.14Z" fill="black"/>
<path d="M662.315 142.194H637.229C635.138 142.194 633.442 143.9 633.442 146.004V149.27C633.442 151.374 635.138 153.08 637.229 153.08H662.315C664.406 153.08 666.102 151.374 666.102 149.27V146.004C666.102 143.9 664.406 142.194 662.315 142.194Z" fill="black"/>
<path d="M399.12 119.14H374.035C371.943 119.14 370.248 120.846 370.248 122.95V126.216C370.248 128.321 371.943 130.027 374.035 130.027H399.12C401.212 130.027 402.907 128.321 402.907 126.216V122.95C402.907 120.846 401.212 119.14 399.12 119.14Z" fill="black"/>
<path d="M55.0939 10.442H60.7204V36.03H55.0939V10.442ZM65.6631 10.442H71.2538L81.9334 27.6082H82.005V10.442H87.2732V36.03H81.6467L71.0029 18.8997H70.9313V36.03H65.6631V10.442ZM97.8528 31.2995H102.87C103.682 31.2995 104.471 31.1681 105.235 30.9053C106 30.6425 106.681 30.2124 107.278 29.6151C107.875 28.9939 108.353 28.1936 108.712 27.214C109.07 26.2344 109.249 25.0399 109.249 23.6303C109.249 22.3401 109.118 21.1814 108.855 20.154C108.616 19.1028 108.21 18.2068 107.636 17.4662C107.063 16.7256 106.298 16.1641 105.343 15.7818C104.411 15.3757 103.252 15.1726 101.867 15.1726H97.8528V31.2995ZM92.2263 10.442H103.264C104.913 10.442 106.442 10.7049 107.851 11.2305C109.285 11.7561 110.515 12.5445 111.543 13.5957C112.594 14.647 113.406 15.961 113.98 17.5379C114.577 19.1147 114.876 20.9663 114.876 23.0927C114.876 24.9562 114.637 26.6764 114.159 28.2533C113.681 29.8301 112.952 31.192 111.973 32.3388C111.017 33.4856 109.811 34.3934 108.353 35.0624C106.92 35.7075 105.223 36.03 103.264 36.03H92.2263V10.442ZM140.507 26.3539C140.507 29.8182 139.539 32.3985 137.604 34.0948C135.669 35.7672 132.993 36.6034 129.577 36.6034C126.112 36.6034 123.424 35.7672 121.513 34.0948C119.626 32.4224 118.682 29.8421 118.682 26.3539V10.442H124.308V26.3539C124.308 27.0468 124.368 27.7277 124.488 28.3966C124.607 29.0656 124.858 29.6629 125.24 30.1885C125.622 30.6902 126.148 31.1083 126.817 31.4428C127.51 31.7534 128.43 31.9087 129.577 31.9087C131.583 31.9087 132.969 31.4667 133.734 30.5827C134.498 29.6748 134.88 28.2652 134.88 26.3539V10.442H140.507V26.3539ZM136.278 1.80521H130.687L126.889 8.14845H130.437L136.278 1.80521ZM149.187 27.5365C149.187 28.3966 149.343 29.1253 149.653 29.7226C149.964 30.3199 150.37 30.8097 150.872 31.192C151.397 31.5503 152.006 31.8251 152.699 32.0162C153.392 32.1835 154.109 32.2671 154.85 32.2671C155.351 32.2671 155.889 32.2313 156.462 32.1596C157.036 32.064 157.573 31.8968 158.075 31.6579C158.577 31.4189 158.995 31.0964 159.329 30.6902C159.664 30.2602 159.831 29.7226 159.831 29.0776C159.831 28.3847 159.604 27.8232 159.15 27.3932C158.72 26.9631 158.147 26.6048 157.43 26.3181C156.713 26.0314 155.901 25.7805 154.993 25.5655C154.085 25.3505 153.165 25.1115 152.233 24.8487C151.278 24.6098 150.346 24.3231 149.438 23.9886C148.53 23.6303 147.718 23.1763 147.001 22.6268C146.284 22.0773 145.699 21.3964 145.245 20.5841C144.815 19.7479 144.6 18.7444 144.6 17.5737C144.6 16.2597 144.875 15.1248 145.424 14.1692C145.998 13.1896 146.738 12.3773 147.646 11.7322C148.554 11.0871 149.581 10.6093 150.728 10.2987C151.875 9.98811 153.022 9.83281 154.169 9.83281C155.507 9.83281 156.785 9.98811 158.003 10.2987C159.246 10.5854 160.345 11.0632 161.3 11.7322C162.256 12.4012 163.009 13.2613 163.558 14.3125C164.131 15.3398 164.418 16.5942 164.418 18.0754H158.971C158.923 17.3109 158.756 16.6778 158.469 16.1761C158.206 15.6743 157.848 15.2801 157.394 14.9934C156.94 14.7067 156.414 14.5036 155.817 14.3842C155.244 14.2647 154.611 14.205 153.918 14.205C153.464 14.205 153.01 14.2528 152.556 14.3483C152.102 14.4439 151.684 14.6111 151.302 14.8501C150.943 15.089 150.645 15.3876 150.406 15.746C150.167 16.1044 150.047 16.5583 150.047 17.1078C150.047 17.6096 150.143 18.0157 150.334 18.3263C150.525 18.6369 150.895 18.9236 151.445 19.1864C152.018 19.4492 152.795 19.712 153.774 19.9748C154.778 20.2376 156.08 20.5721 157.681 20.9783C158.159 21.0738 158.816 21.253 159.652 21.5158C160.512 21.7548 161.36 22.149 162.196 22.6985C163.032 23.248 163.749 23.9886 164.346 24.9204C164.968 25.8283 165.278 26.999 165.278 28.4325C165.278 29.6032 165.051 30.6902 164.597 31.6937C164.143 32.6971 163.462 33.5692 162.555 34.3098C161.671 35.0266 160.56 35.588 159.222 35.9942C157.908 36.4004 156.379 36.6034 154.635 36.6034C153.225 36.6034 151.851 36.4242 150.513 36.0659C149.199 35.7314 148.028 35.1938 147.001 34.4532C145.998 33.7125 145.197 32.7688 144.6 31.622C144.003 30.4752 143.716 29.1134 143.74 27.5365H149.187ZM174.288 15.1726H166.619V10.442H187.584V15.1726H179.915V36.03H174.288V15.1726ZM196.161 22.0176H202.325C203.615 22.0176 204.583 21.7309 205.228 21.1575C205.873 20.5841 206.195 19.6523 206.195 18.3621C206.195 17.1198 205.873 16.2238 205.228 15.6743C204.583 15.1009 203.615 14.8142 202.325 14.8142H196.161V22.0176ZM190.534 10.442H204.332C205.479 10.442 206.506 10.6332 207.414 11.0155C208.346 11.3738 209.134 11.8755 209.779 12.5206C210.448 13.1657 210.95 13.9183 211.284 14.7784C211.643 15.6146 211.822 16.5225 211.822 17.502C211.822 19.0072 211.499 20.3093 210.854 21.4083C210.233 22.5073 209.206 23.3436 207.772 23.917V23.9886C208.465 24.1798 209.039 24.4784 209.492 24.8846C209.946 25.2668 210.317 25.7327 210.603 26.2822C210.89 26.8078 211.093 27.3932 211.213 28.0383C211.356 28.6833 211.452 29.3284 211.499 29.9735C211.523 30.3796 211.547 30.8575 211.571 31.407C211.595 31.9565 211.631 32.518 211.679 33.0914C211.75 33.6648 211.846 34.2143 211.965 34.7399C212.109 35.2416 212.312 35.6717 212.575 36.03H206.948C206.637 35.2177 206.446 34.2501 206.375 33.1272C206.303 32.0043 206.195 30.9292 206.052 29.9018C205.861 28.5639 205.455 27.5843 204.834 26.9631C204.212 26.342 203.197 26.0314 201.787 26.0314H196.161V36.03H190.534V10.442ZM216.398 10.442H222.024V36.03H216.398V10.442ZM233.418 26.1389H240.048L236.822 16.7494H236.751L233.418 26.1389ZM233.955 10.442H239.725L249.294 36.03H243.452L241.517 30.3319H231.948L229.941 36.03H224.279L233.955 10.442ZM261.475 10.442H280.612V15.1726H267.101V20.6557H279.501V25.0279H267.101V31.2995H280.898V36.03H261.475V10.442ZM311.746 19.0431C311.65 18.398 311.435 17.8126 311.101 17.287C310.766 16.7375 310.348 16.2597 309.846 15.8535C309.345 15.4474 308.771 15.1368 308.126 14.9217C307.505 14.6828 306.848 14.5634 306.155 14.5634C304.889 14.5634 303.814 14.8142 302.93 15.316C302.046 15.7938 301.329 16.4508 300.78 17.287C300.23 18.0993 299.824 19.0311 299.561 20.0823C299.322 21.1336 299.203 22.2206 299.203 23.3436C299.203 24.4187 299.322 25.4699 299.561 26.4973C299.824 27.5007 300.23 28.4086 300.78 29.2209C301.329 30.0332 302.046 30.6902 302.93 31.192C303.814 31.6698 304.889 31.9087 306.155 31.9087C307.875 31.9087 309.213 31.3831 310.169 30.3319C311.149 29.2806 311.746 27.8949 311.961 26.1747H317.408C317.265 27.7755 316.895 29.2209 316.297 30.5111C315.7 31.8012 314.912 32.9002 313.932 33.8081C312.952 34.716 311.806 35.4088 310.492 35.8867C309.178 36.3645 307.732 36.6034 306.155 36.6034C304.196 36.6034 302.428 36.2689 300.851 35.6C299.298 34.9071 297.984 33.9634 296.909 32.7688C295.834 31.5742 295.01 30.1766 294.436 28.5758C293.863 26.9512 293.576 25.2071 293.576 23.3436C293.576 21.4322 293.863 19.6642 294.436 18.0396C295.01 16.3911 295.834 14.9576 296.909 13.7391C297.984 12.5206 299.298 11.565 300.851 10.8721C302.428 10.1792 304.196 9.83281 306.155 9.83281C307.565 9.83281 308.891 10.0359 310.133 10.442C311.399 10.8482 312.522 11.4455 313.502 12.2339C314.505 12.9985 315.33 13.9541 315.975 15.1009C316.62 16.2477 317.026 17.5618 317.193 19.0431H311.746ZM325.766 23.3436C325.766 24.4187 325.885 25.4699 326.124 26.4973C326.387 27.5007 326.793 28.4086 327.343 29.2209C327.892 30.0332 328.609 30.6902 329.493 31.192C330.377 31.6698 331.452 31.9087 332.718 31.9087C333.985 31.9087 335.06 31.6698 335.944 31.192C336.828 30.6902 337.544 30.0332 338.094 29.2209C338.643 28.4086 339.038 27.5007 339.277 26.4973C339.539 25.4699 339.671 24.4187 339.671 23.3436C339.671 22.2206 339.539 21.1336 339.277 20.0823C339.038 19.0311 338.643 18.0993 338.094 17.287C337.544 16.4508 336.828 15.7938 335.944 15.316C335.06 14.8142 333.985 14.5634 332.718 14.5634C331.452 14.5634 330.377 14.8142 329.493 15.316C328.609 15.7938 327.892 16.4508 327.343 17.287C326.793 18.0993 326.387 19.0311 326.124 20.0823C325.885 21.1336 325.766 22.2206 325.766 23.3436ZM320.139 23.3436C320.139 21.4322 320.426 19.6642 320.999 18.0396C321.573 16.3911 322.397 14.9576 323.472 13.7391C324.547 12.5206 325.861 11.565 327.414 10.8721C328.991 10.1792 330.759 9.83281 332.718 9.83281C334.701 9.83281 336.469 10.1792 338.022 10.8721C339.575 11.565 340.889 12.5206 341.964 13.7391C343.04 14.9576 343.864 16.3911 344.437 18.0396C345.011 19.6642 345.297 21.4322 345.297 23.3436C345.297 25.2071 345.011 26.9512 344.437 28.5758C343.864 30.1766 343.04 31.5742 341.964 32.7688C340.889 33.9634 339.575 34.9071 338.022 35.6C336.469 36.2689 334.701 36.6034 332.718 36.6034C330.759 36.6034 328.991 36.2689 327.414 35.6C325.861 34.9071 324.547 33.9634 323.472 32.7688C322.397 31.5742 321.573 30.1766 320.999 28.5758C320.426 26.9512 320.139 25.2071 320.139 23.3436ZM349.143 10.442H357.064L363.048 28.0383H363.12L368.782 10.442H376.702V36.03H371.434V17.8963H371.363L365.091 36.03H360.755L354.483 18.0754H354.412V36.03H349.143V10.442ZM381.656 10.442H400.793V15.1726H387.283V20.6557H399.682V25.0279H387.283V31.2995H401.08V36.03H381.656V10.442ZM397.496 1.80521H391.906L388.107 8.14845H391.655L397.496 1.80521ZM410.521 22.0176H416.685C417.975 22.0176 418.943 21.7309 419.588 21.1575C420.233 20.5841 420.556 19.6523 420.556 18.3621C420.556 17.1198 420.233 16.2238 419.588 15.6743C418.943 15.1009 417.975 14.8142 416.685 14.8142H410.521V22.0176ZM404.895 10.442H418.692C419.839 10.442 420.866 10.6332 421.774 11.0155C422.706 11.3738 423.494 11.8755 424.139 12.5206C424.808 13.1657 425.31 13.9183 425.644 14.7784C426.003 15.6146 426.182 16.5225 426.182 17.502C426.182 19.0072 425.859 20.3093 425.214 21.4083C424.593 22.5073 423.566 23.3436 422.132 23.917V23.9886C422.825 24.1798 423.399 24.4784 423.853 24.8846C424.307 25.2668 424.677 25.7327 424.964 26.2822C425.25 26.8078 425.453 27.3932 425.573 28.0383C425.716 28.6833 425.812 29.3284 425.859 29.9735C425.883 30.3796 425.907 30.8575 425.931 31.407C425.955 31.9565 425.991 32.518 426.039 33.0914C426.11 33.6648 426.206 34.2143 426.325 34.7399C426.469 35.2416 426.672 35.6717 426.935 36.03H421.308C420.998 35.2177 420.806 34.2501 420.735 33.1272C420.663 32.0043 420.556 30.9292 420.412 29.9018C420.221 28.5639 419.815 27.5843 419.194 26.9631C418.573 26.342 417.557 26.0314 416.148 26.0314H410.521V36.03H404.895V10.442ZM447.816 19.0431C447.721 18.398 447.506 17.8126 447.171 17.287C446.837 16.7375 446.419 16.2597 445.917 15.8535C445.415 15.4474 444.842 15.1368 444.197 14.9217C443.576 14.6828 442.919 14.5634 442.226 14.5634C440.959 14.5634 439.884 14.8142 439 15.316C438.116 15.7938 437.4 16.4508 436.85 17.287C436.301 18.0993 435.894 19.0311 435.632 20.0823C435.393 21.1336 435.273 22.2206 435.273 23.3436C435.273 24.4187 435.393 25.4699 435.632 26.4973C435.894 27.5007 436.301 28.4086 436.85 29.2209C437.4 30.0332 438.116 30.6902 439 31.192C439.884 31.6698 440.959 31.9087 442.226 31.9087C443.946 31.9087 445.284 31.3831 446.24 30.3319C447.219 29.2806 447.816 27.8949 448.031 26.1747H453.479C453.335 27.7755 452.965 29.2209 452.368 30.5111C451.77 31.8012 450.982 32.9002 450.002 33.8081C449.023 34.716 447.876 35.4088 446.562 35.8867C445.248 36.3645 443.803 36.6034 442.226 36.6034C440.267 36.6034 438.499 36.2689 436.922 35.6C435.369 34.9071 434.055 33.9634 432.98 32.7688C431.905 31.5742 431.08 30.1766 430.507 28.5758C429.933 26.9512 429.647 25.2071 429.647 23.3436C429.647 21.4322 429.933 19.6642 430.507 18.0396C431.08 16.3911 431.905 14.9576 432.98 13.7391C434.055 12.5206 435.369 11.565 436.922 10.8721C438.499 10.1792 440.267 9.83281 442.226 9.83281C443.635 9.83281 444.961 10.0359 446.204 10.442C447.47 10.8482 448.593 11.4455 449.572 12.2339C450.576 12.9985 451.4 13.9541 452.045 15.1009C452.69 16.2477 453.096 17.5618 453.264 19.0431H447.816ZM457.321 10.442H462.947V36.03H457.321V10.442ZM472.406 23.3436C472.406 24.4187 472.525 25.4699 472.764 26.4973C473.027 27.5007 473.433 28.4086 473.983 29.2209C474.532 30.0332 475.249 30.6902 476.133 31.192C477.017 31.6698 478.092 31.9087 479.358 31.9087C480.624 31.9087 481.7 31.6698 482.584 31.192C483.468 30.6902 484.184 30.0332 484.734 29.2209C485.283 28.4086 485.677 27.5007 485.916 26.4973C486.179 25.4699 486.311 24.4187 486.311 23.3436C486.311 22.2206 486.179 21.1336 485.916 20.0823C485.677 19.0311 485.283 18.0993 484.734 17.287C484.184 16.4508 483.468 15.7938 482.584 15.316C481.7 14.8142 480.624 14.5634 479.358 14.5634C478.092 14.5634 477.017 14.8142 476.133 15.316C475.249 15.7938 474.532 16.4508 473.983 17.287C473.433 18.0993 473.027 19.0311 472.764 20.0823C472.525 21.1336 472.406 22.2206 472.406 23.3436ZM466.779 23.3436C466.779 21.4322 467.066 19.6642 467.639 18.0396C468.213 16.3911 469.037 14.9576 470.112 13.7391C471.187 12.5206 472.501 11.565 474.054 10.8721C475.631 10.1792 477.399 9.83281 479.358 9.83281C481.341 9.83281 483.109 10.1792 484.662 10.8721C486.215 11.565 487.529 12.5206 488.604 13.7391C489.679 14.9576 490.504 16.3911 491.077 18.0396C491.65 19.6642 491.937 21.4322 491.937 23.3436C491.937 25.2071 491.65 26.9512 491.077 28.5758C490.504 30.1766 489.679 31.5742 488.604 32.7688C487.529 33.9634 486.215 34.9071 484.662 35.6C483.109 36.2689 481.341 36.6034 479.358 36.6034C477.399 36.6034 475.631 36.2689 474.054 35.6C472.501 34.9071 471.187 33.9634 470.112 32.7688C469.037 31.5742 468.213 30.1766 467.639 28.5758C467.066 26.9512 466.779 25.2071 466.779 23.3436ZM511.384 31.2995H516.401C517.214 31.2995 518.002 31.1681 518.767 30.9053C519.531 30.6425 520.212 30.2124 520.809 29.6151C521.407 28.9939 521.884 28.1936 522.243 27.214C522.601 26.2344 522.78 25.0399 522.78 23.6303C522.78 22.3401 522.649 21.1814 522.386 20.154C522.147 19.1028 521.741 18.2068 521.168 17.4662C520.594 16.7256 519.83 16.1641 518.874 15.7818C517.942 15.3757 516.784 15.1726 515.398 15.1726H511.384V31.2995ZM505.758 10.442H516.795C518.444 10.442 519.973 10.7049 521.383 11.2305C522.816 11.7561 524.047 12.5445 525.074 13.5957C526.125 14.647 526.937 15.961 527.511 17.5379C528.108 19.1147 528.407 20.9663 528.407 23.0927C528.407 24.9562 528.168 26.6764 527.69 28.2533C527.212 29.8301 526.484 31.192 525.504 32.3388C524.548 33.4856 523.342 34.3934 521.884 35.0624C520.451 35.7075 518.755 36.03 516.795 36.03H505.758V10.442ZM532.321 10.442H551.458V15.1726H537.947V20.6557H550.347V25.0279H537.947V31.2995H551.745V36.03H532.321V10.442ZM571.16 31.2995H576.177C576.989 31.2995 577.778 31.1681 578.542 30.9053C579.307 30.6425 579.988 30.2124 580.585 29.6151C581.182 28.9939 581.66 28.1936 582.019 27.214C582.377 26.2344 582.556 25.0399 582.556 23.6303C582.556 22.3401 582.425 21.1814 582.162 20.154C581.923 19.1028 581.517 18.2068 580.943 17.4662C580.37 16.7256 579.606 16.1641 578.65 15.7818C577.718 15.3757 576.559 15.1726 575.174 15.1726H571.16V31.2995ZM565.533 10.442H576.571C578.22 10.442 579.749 10.7049 581.159 11.2305C582.592 11.7561 583.822 12.5445 584.85 13.5957C585.901 14.647 586.713 15.961 587.287 17.5379C587.884 19.1147 588.183 20.9663 588.183 23.0927C588.183 24.9562 587.944 26.6764 587.466 28.2533C586.988 29.8301 586.259 31.192 585.28 32.3388C584.324 33.4856 583.118 34.3934 581.66 35.0624C580.227 35.7075 578.53 36.03 576.571 36.03H565.533V10.442ZM592.097 10.442H611.234V15.1726H597.723V20.6557H610.123V25.0279H597.723V31.2995H611.52V36.03H592.097V10.442ZM619.17 27.5365C619.17 28.3966 619.325 29.1253 619.635 29.7226C619.946 30.3199 620.352 30.8097 620.854 31.192C621.38 31.5503 621.989 31.8251 622.682 32.0162C623.374 32.1835 624.091 32.2671 624.832 32.2671C625.334 32.2671 625.871 32.2313 626.445 32.1596C627.018 32.064 627.555 31.8968 628.057 31.6579C628.559 31.4189 628.977 31.0964 629.312 30.6902C629.646 30.2602 629.813 29.7226 629.813 29.0776C629.813 28.3847 629.586 27.8232 629.132 27.3932C628.702 26.9631 628.129 26.6048 627.412 26.3181C626.695 26.0314 625.883 25.7805 624.975 25.5655C624.067 25.3505 623.147 25.1115 622.216 24.8487C621.26 24.6098 620.328 24.3231 619.42 23.9886C618.513 23.6303 617.7 23.1763 616.983 22.6268C616.267 22.0773 615.681 21.3964 615.227 20.5841C614.797 19.7479 614.582 18.7444 614.582 17.5737C614.582 16.2597 614.857 15.1248 615.407 14.1692C615.98 13.1896 616.721 12.3773 617.629 11.7322C618.536 11.0871 619.564 10.6093 620.711 10.2987C621.857 9.98811 623.004 9.83281 624.151 9.83281C625.489 9.83281 626.767 9.98811 627.986 10.2987C629.228 10.5854 630.327 11.0632 631.283 11.7322C632.238 12.4012 632.991 13.2613 633.54 14.3125C634.114 15.3398 634.4 16.5942 634.4 18.0754H628.953C628.905 17.3109 628.738 16.6778 628.451 16.1761C628.189 15.6743 627.83 15.2801 627.376 14.9934C626.922 14.7067 626.397 14.5036 625.799 14.3842C625.226 14.2647 624.593 14.205 623.9 14.205C623.446 14.205 622.992 14.2528 622.538 14.3483C622.084 14.4439 621.666 14.6111 621.284 14.8501C620.926 15.089 620.627 15.3876 620.388 15.746C620.149 16.1044 620.03 16.5583 620.03 17.1078C620.03 17.6096 620.125 18.0157 620.316 18.3263C620.507 18.6369 620.878 18.9236 621.427 19.1864C622.001 19.4492 622.777 19.712 623.757 19.9748C624.76 20.2376 626.062 20.5721 627.663 20.9783C628.141 21.0738 628.798 21.253 629.634 21.5158C630.494 21.7548 631.342 22.149 632.179 22.6985C633.015 23.248 633.731 23.9886 634.329 24.9204C634.95 25.8283 635.261 26.999 635.261 28.4325C635.261 29.6032 635.034 30.6902 634.58 31.6937C634.126 32.6971 633.445 33.5692 632.537 34.3098C631.653 35.0266 630.542 35.588 629.204 35.9942C627.89 36.4004 626.361 36.6034 624.617 36.6034C623.207 36.6034 621.833 36.4242 620.496 36.0659C619.181 35.7314 618.011 35.1938 616.983 34.4532C615.98 33.7125 615.18 32.7688 614.582 31.622C613.985 30.4752 613.698 29.1134 613.722 27.5365H619.17ZM638.608 10.442H644.235V36.03H638.608V10.442ZM667.67 33.1272C666.666 34.4173 665.555 35.3252 664.337 35.8508C663.118 36.3526 661.888 36.6034 660.646 36.6034C658.686 36.6034 656.918 36.2689 655.342 35.6C653.789 34.9071 652.475 33.9634 651.399 32.7688C650.324 31.5742 649.5 30.1766 648.927 28.5758C648.353 26.9512 648.067 25.2071 648.067 23.3436C648.067 21.4322 648.353 19.6642 648.927 18.0396C649.5 16.3911 650.324 14.9576 651.399 13.7391C652.475 12.5206 653.789 11.565 655.342 10.8721C656.918 10.1792 658.686 9.83281 660.646 9.83281C661.96 9.83281 663.226 10.0359 664.444 10.442C665.687 10.8243 666.798 11.3977 667.777 12.1623C668.781 12.9268 669.605 13.8705 670.25 14.9934C670.895 16.1163 671.289 17.4065 671.433 18.8639H666.057C665.722 17.4304 665.077 16.3552 664.122 15.6385C663.166 14.9217 662.007 14.5634 660.646 14.5634C659.379 14.5634 658.304 14.8142 657.42 15.316C656.536 15.7938 655.819 16.4508 655.27 17.287C654.72 18.0993 654.314 19.0311 654.051 20.0823C653.812 21.1336 653.693 22.2206 653.693 23.3436C653.693 24.4187 653.812 25.4699 654.051 26.4973C654.314 27.5007 654.72 28.4086 655.27 29.2209C655.819 30.0332 656.536 30.6902 657.42 31.192C658.304 31.6698 659.379 31.9087 660.646 31.9087C662.509 31.9087 663.943 31.4428 664.946 30.5111C665.973 29.5554 666.571 28.1816 666.738 26.3897H661.076V22.1968H671.827V36.03H668.243L667.67 33.1272ZM676.371 10.442H681.961L692.641 27.6082H692.713V10.442H697.981V36.03H692.354L681.71 18.8997H681.639V36.03H676.371V10.442Z" fill="black"/>
</svg>
