<svg width="578" height="247" viewBox="0 0 578 247" fill="none" xmlns="http://www.w3.org/2000/svg">
<path d="M0.37793 245.792V202.777H16.3113C29.2184 202.777 38.1175 210.171 38.1175 223.618V224.951C38.1175 238.341 29.2102 245.792 16.3113 245.792H0.37793ZM9.21983 238.398H15.6979C23.7546 238.398 28.8421 234.521 28.8421 224.951V223.618C28.8421 214.048 23.7546 210.171 15.6979 210.171H9.21983V238.398Z" fill="black"/>
<path d="M40.9073 245.792V202.777H71.8007V210.106H49.7492V220.224H69.805V227.495H49.7492V238.464H72.2261V245.792H40.9073Z" fill="black"/>
<path d="M72.5367 231.863H81.444C82.0493 237.016 85.681 239.438 91.1366 239.438C96.1669 239.438 99.1933 237.622 99.1933 234.105V233.859C99.1933 230.645 96.8949 229.132 88.5274 227.561C78.0496 225.623 73.9845 221.623 73.9845 214.899V214.54C73.9845 206.965 80.528 202.001 90.2205 202.001C99.9131 202.001 106.579 206.786 107.307 215.693H98.3999C97.9173 211.268 94.8827 209.092 90.0406 209.092C85.1984 209.092 82.8345 211.276 82.8345 214.302V214.425C82.8345 217.149 84.1105 218.85 92.5843 220.298C102.882 222.056 108.035 225.753 108.035 232.959V233.319C108.035 241.319 101.066 246.586 90.8912 246.586C79.9227 246.586 73.0766 241.131 72.5367 231.863Z" fill="black"/>
<path d="M111.004 245.792V202.777H119.968V245.792H111.004Z" fill="black"/>
<path d="M123.183 224.951V223.618C123.183 210.957 131.485 201.992 144.081 201.992C154.559 201.992 161.405 208.233 162.681 216.952H153.593C152.506 212.29 149.168 209.443 143.958 209.443C136.564 209.443 132.507 215.202 132.507 223.618V224.951C132.507 233.433 136.809 239.069 144.195 239.069C151.581 239.069 155.164 234.521 155.278 228.951H143.222V221.925H162.852V245.792H156.186L155.458 240.222C153.274 243.977 148.49 246.586 142.797 246.586C130.986 246.586 123.166 237.556 123.166 224.96L123.183 224.951Z" fill="black"/>
<path d="M166.378 245.792V202.777H176.856L194.728 233.253V202.777H203.21V245.792H193.272L174.917 214.293V245.792H166.378Z" fill="black"/>
<path d="M251.683 245.792H242.35L240.534 243.551C237.442 245.547 233.688 246.577 229.688 246.577C219.939 246.577 214.238 241.244 214.238 233.973C214.238 228.763 216.904 225.368 222.662 221.794L222.237 221.246C220.176 218.825 218.483 215.61 218.483 212.404C218.483 206.286 223.268 201.983 230.539 201.983C236.903 201.983 241.622 206.106 241.622 211.733C241.622 216.273 239.078 219.61 233.508 223.242L240.477 231.904C241.205 229.785 241.45 227.241 241.082 224.329H249.319C249.801 230.022 248.411 234.807 245.867 238.504L251.683 245.776V245.792ZM235.872 237.915L227.145 227.192C223.93 229.433 222.965 231.249 222.965 233.67C222.965 237.065 225.509 239.429 230.114 239.429C232.232 239.429 234.171 238.881 235.872 237.915ZM226.785 212.592C226.785 214.171 227.39 215.741 228.969 217.622L229.214 217.925C232.486 215.807 233.394 214.293 233.394 212.052C233.394 210.056 232.183 208.78 230.302 208.78C228.061 208.78 226.785 210.359 226.785 212.6V212.592Z" fill="black"/>
<path d="M260.042 224.951V223.618C260.042 210.957 268.344 201.992 280.883 201.992C291.729 201.992 298.935 208.838 299.663 219.013H290.575C289.913 213.075 286.339 209.501 280.76 209.501C273.489 209.501 269.375 215.194 269.375 223.618V224.951C269.375 233.368 273.554 239.004 280.76 239.004C286.576 239.004 290.207 235.069 290.51 229.066H299.597C298.935 239.306 291.966 246.578 280.817 246.578C268.099 246.578 260.042 237.67 260.042 224.951Z" fill="black"/>
<path d="M300.634 224.951V223.618C300.634 211.014 308.748 201.992 321.655 201.992C334.562 201.992 342.619 211.022 342.619 223.618V224.951C342.619 237.556 334.562 246.578 321.655 246.578C308.748 246.578 300.634 237.548 300.634 224.951ZM333.352 224.951V223.618C333.352 214.956 329.172 209.443 321.663 209.443C314.155 209.443 309.975 214.956 309.975 223.618V224.951C309.975 233.556 314.212 239.069 321.663 239.069C329.115 239.069 333.352 233.556 333.352 224.951Z" fill="black"/>
<path d="M353.882 231.863V225.016H384.538V231.863H353.882Z" fill="black"/>
<path d="M395.442 231.863H404.35C404.955 237.016 408.587 239.438 414.042 239.438C419.073 239.438 422.099 237.622 422.099 234.105V233.859C422.099 230.645 419.801 229.132 411.433 227.561C400.955 225.623 396.89 221.623 396.89 214.899V214.54C396.89 206.965 403.434 202.001 413.126 202.001C422.819 202.001 429.485 206.786 430.213 215.693H421.306C420.823 211.268 417.788 209.092 412.946 209.092C408.104 209.092 405.74 211.276 405.74 214.302V214.425C405.74 217.149 407.016 218.85 415.49 220.298C425.788 222.056 430.941 225.753 430.941 232.959V233.319C430.941 241.319 423.972 246.586 413.797 246.586C402.828 246.586 395.982 241.131 395.442 231.863Z" fill="black"/>
<path d="M433.493 245.792V202.777H451.724C460.689 202.777 467.298 207.505 467.298 216.289V217.017C467.298 225.859 460.754 230.53 451.724 230.53H442.277V245.792H433.493ZM442.277 223.135H450.816C455.053 223.135 458.088 221.254 458.088 217.017V216.289C458.088 211.987 455.062 210.171 450.816 210.171H442.277V223.135Z" fill="black"/>
<path d="M480.082 222.832V214.53H488.686V222.832H480.082ZM480.082 245.791V237.432H488.686V245.791H480.082Z" fill="black"/>
<path d="M503.401 245.792V202.777H522.058C530.663 202.777 536.356 206.351 536.356 213.745V214.408C536.356 217.982 534.36 221.377 530.598 223.135C535.383 224.714 538.172 228.526 538.172 233.131V233.736C538.172 241.187 531.996 245.792 523.392 245.792H503.401ZM521.208 220.469C525.633 220.469 527.383 218.776 527.383 215.381V214.776C527.383 211.447 525.387 209.991 521.142 209.991H512.055V220.469H521.208ZM512.063 238.586H522.484C526.721 238.586 529.15 236.648 529.15 233.433V232.771C529.15 229.442 526.966 227.618 522.549 227.618H512.071V238.586H512.063Z" fill="black"/>
<path d="M540.667 245.792V202.777H559.504C568.468 202.777 575.077 207.505 575.077 216.289V217.017C575.077 223.618 571.446 227.863 565.867 229.622L576.59 245.8H566.538L556.788 230.538H549.459V245.8H540.675L540.667 245.792ZM549.451 223.135H558.596C562.833 223.135 565.867 221.254 565.867 217.017V216.289C565.867 211.987 562.841 210.171 558.596 210.171H549.451V223.135Z" fill="black"/>
<path d="M551.124 27.1721C534.216 10.0833 510.681 0.673706 484.843 0.673706C462.125 0.673706 441.194 7.97109 424.992 21.3835C424.746 21.1803 424.513 20.9709 424.267 20.7677C409.785 8.82707 391.009 2.50883 369.98 2.50883H0.376953V190.313H111.131H218.347H280.974H490.155L490.069 190.178C513.844 188.995 535.365 179.74 551.124 163.809C568.014 146.732 577.319 122.968 577.319 96.8883V94.0925C577.319 68.0128 568.014 44.2425 551.124 27.1721ZM13.8888 16.0567H144.566V95.7737H139.352V137.895H97.6251V176.765H86.8279H70.7858H13.8888V16.0567ZM111.131 176.765V151.443H152.858V109.322H158.072V16.0567H218.347V95.7737H183.376V109.322H218.347V137.895H183.376V151.443H218.347V176.765H111.131ZM338.964 176.765H231.859V16.0567H307.347C325.207 16.0567 341.016 21.3034 353.054 31.2303C366.989 42.7214 374.66 59.5947 374.66 78.7464V80.1567C374.66 92.0172 371.675 103.274 366.037 112.721L363.875 116.336L402.74 176.771H338.964V176.765ZM435.027 176.765H418.813L379.703 115.948C385.255 105.239 388.172 92.9532 388.172 80.1567V78.7464C388.172 55.4687 378.751 34.8759 361.634 20.7677C359.594 19.0865 357.463 17.5162 355.258 16.0629H369.974C387.613 16.0629 403.244 21.1864 415.22 30.8793C415.368 31.0025 415.527 31.1133 415.675 31.2365C419.071 34.0384 422.093 37.1606 424.728 40.5599C432.89 51.0903 437.281 64.2687 437.281 78.7526V80.1628C437.281 92.0234 434.296 103.28 428.658 112.727L426.496 116.342L463.715 174.216L465.361 176.778H435.027V176.765ZM563.807 96.8944C563.807 119.378 555.896 139.755 541.531 154.276C527.184 168.778 507.051 176.771 484.843 176.771C483.688 176.771 482.54 176.747 481.397 176.704L442.33 115.954C447.882 105.245 450.799 92.9594 450.799 80.1628V78.7526C450.799 60.6477 445.094 44.1686 434.511 31.101C448.171 20.1703 465.736 14.2339 484.849 14.2339C507.057 14.2339 527.19 22.221 541.537 36.7295C555.903 51.2504 563.813 71.6276 563.813 94.111V96.9068L563.807 96.8944Z" fill="black"/>
</svg>
