<svg width="663" height="143" viewBox="0 0 663 143" fill="none" xmlns="http://www.w3.org/2000/svg">
<path d="M592.142 142.095L523.538 141.216H519.307C514.728 141.216 510.414 139.438 507.164 136.208L465.769 95.017C463.172 92.4413 462.437 88.7617 463.827 85.3888C465.217 82.0158 468.344 79.9307 472.004 79.9307C492.671 79.9307 509.494 63.1068 509.494 42.4398C509.494 21.7728 492.671 4.94896 472.004 4.94896H422.063C421.041 4.94896 420.183 5.78709 420.183 6.82964V135.268C420.183 138.559 417.505 141.237 414.214 141.237C410.922 141.237 408.244 138.559 408.244 135.268V6.80919C408.244 5.78709 407.406 4.92852 406.364 4.92852C405.321 4.92852 404.483 5.76664 404.483 6.80919V135.247C404.483 138.538 401.805 141.216 398.514 141.216C395.223 141.216 392.545 138.538 392.545 135.247V6.80919C392.545 5.78709 391.707 4.92852 390.664 4.92852C389.622 4.92852 388.784 5.76664 388.784 6.80919V135.492C388.784 138.661 386.208 141.216 383.06 141.216H380.75C376.886 141.216 373.268 139.724 370.529 137.005L328.07 95.017C325.474 92.4413 324.738 88.7413 326.128 85.3683C327.518 81.9954 330.646 79.9103 334.305 79.9103C354.972 79.9103 371.796 63.0864 371.796 42.4194C371.796 21.7524 354.972 4.92852 334.305 4.92852H284.365C283.343 4.92852 282.484 5.76664 282.484 6.80919V135.247C282.484 138.538 279.806 141.216 276.515 141.216C273.224 141.216 270.546 138.538 270.546 135.247V6.80919C270.546 5.78709 269.708 4.92852 268.666 4.92852C267.623 4.92852 266.785 5.76664 266.785 6.80919V135.247C266.785 138.538 264.107 141.216 260.816 141.216C257.525 141.216 254.847 138.538 254.847 135.247V6.80919C254.847 5.78709 254.009 4.92852 252.966 4.92852C251.923 4.92852 251.085 5.76664 251.085 6.80919V135.492C251.085 138.661 248.51 141.216 245.361 141.216H154.476C151.185 141.216 148.507 138.538 148.507 135.247V71.9583H204.62C205.52 71.9583 206.256 71.2224 206.256 70.3229V69.7505C206.256 68.8511 205.52 68.1152 204.62 68.1152H148.507V14.5568C148.507 11.3882 151.082 8.83296 154.23 8.83296H234.548C235.447 8.83296 236.183 8.09705 236.183 7.19759V6.62521C236.183 5.72576 235.447 4.98984 234.548 4.98984H146.401C145.502 4.9694 144.766 5.70532 144.766 6.60477V135.288C144.766 138.579 142.088 141.257 138.797 141.257C135.505 141.257 132.827 138.579 132.827 135.288V6.80919C132.827 5.78709 131.989 4.92852 130.947 4.92852C129.904 4.92852 129.066 5.76664 129.066 6.80919V136.126C129.066 139.417 126.388 142.095 123.077 142.095C119.765 142.095 117.108 139.417 117.108 136.126V6.56389C117.108 5.66443 116.372 4.92852 115.472 4.92852H38.0578C37.0356 4.92852 36.1771 5.76664 36.1771 6.80919V64.129C36.1771 65.1511 37.0152 66.0096 38.0578 66.0096H88.1001C91.3913 66.0096 94.0692 68.6875 94.0692 71.9787C94.0692 75.2699 91.3913 78.05 88.1206 78.0705H38.0782C37.0561 78.0909 36.1975 78.9291 36.1975 79.9716V135.288C36.1975 138.579 33.5196 141.257 30.2284 141.257C26.9372 141.257 24.2593 138.579 24.2593 135.288V6.80919C24.2593 5.78709 23.4212 4.92852 22.3786 4.92852C21.3361 4.92852 20.498 5.76664 20.498 6.80919V135.247C20.498 138.538 17.82 141.216 14.5288 141.216C11.2377 141.216 8.55974 138.538 8.55974 135.247V6.80919C8.55974 5.78709 7.72162 4.92852 6.67907 4.92852C5.63652 4.92852 4.79839 5.76664 4.79839 6.80919V139.07C4.79839 140.194 3.87849 141.114 2.75417 141.114C1.62986 141.114 0.709961 140.194 0.709961 139.07V6.80919C0.771287 3.51801 3.44921 0.840088 6.74039 0.840088C10.0316 0.840088 12.7095 3.51801 12.7095 6.80919V135.247C12.7095 136.269 13.5476 137.128 14.5902 137.128C15.6327 137.128 16.4709 136.29 16.4709 135.247V6.80919C16.43 3.51801 19.1079 0.840088 22.3991 0.840088C25.6903 0.840088 28.3682 3.51801 28.3682 6.80919V135.247C28.3682 136.269 29.2063 137.128 30.2489 137.128C31.2914 137.128 32.1295 136.29 32.1295 135.247V79.9307C32.1295 76.6395 34.8075 73.9616 38.0986 73.9616H88.141C89.1631 73.9412 90.0217 73.1031 90.0217 72.0605C90.0217 70.8953 89.1835 70.0572 88.141 70.0572H38.0986C34.8075 70.0572 32.1295 67.3793 32.1295 64.0881V6.80919C32.1091 3.51801 34.787 0.840088 38.0578 0.840088H115.615C118.784 0.840088 121.339 3.4158 121.339 6.56389V136.106C121.339 137.148 122.198 137.986 123.22 137.986C124.242 137.986 125.121 137.128 125.121 136.106V6.80919C125.121 3.51801 127.799 0.840088 131.09 0.840088C134.381 0.840088 137.059 3.51801 137.059 6.80919V135.247C137.059 136.269 137.897 137.128 138.94 137.128C139.982 137.128 140.82 136.29 140.82 135.247V6.56389C140.8 3.4158 143.355 0.840088 146.524 0.840088H234.67C237.839 0.86053 240.394 3.43624 240.394 6.60477V7.17715C240.394 10.3457 237.818 12.901 234.67 12.901H154.353C153.454 12.901 152.718 13.6369 152.718 14.5363V63.9859H204.743C207.911 63.9859 210.467 66.5616 210.467 69.7097V70.282C210.467 73.4506 207.891 76.0058 204.743 76.0058H152.718V135.206C152.718 136.228 153.556 137.087 154.598 137.087H245.484C246.384 137.087 247.12 136.351 247.12 135.452V6.80919C247.12 3.51801 249.797 0.840088 253.089 0.840088C256.38 0.840088 259.058 3.51801 259.058 6.80919V135.247C259.058 136.269 259.896 137.128 260.938 137.128C261.981 137.128 262.819 136.29 262.819 135.247V6.80919C262.778 3.51801 265.456 0.840088 268.747 0.840088C272.038 0.840088 274.716 3.51801 274.716 6.80919V135.247C274.716 136.269 275.555 137.128 276.597 137.128C277.64 137.128 278.478 136.29 278.478 135.247V6.80919C278.457 3.51801 281.135 0.840088 284.406 0.840088H334.346C357.282 0.840088 375.925 19.4833 375.925 42.4194C375.925 65.3555 357.282 83.9987 334.346 83.9987C331.995 83.9987 330.544 85.5114 329.951 86.9424C329.358 88.3529 329.338 90.4584 330.994 92.1143L373.452 134.102C375.414 136.044 378.031 137.128 380.811 137.128H383.121C384.021 137.128 384.756 136.392 384.756 135.492V6.80919C384.756 3.51801 387.434 0.840088 390.726 0.840088C394.017 0.840088 396.695 3.51801 396.695 6.80919V135.247C396.695 136.269 397.533 137.128 398.575 137.128C399.618 137.128 400.456 136.29 400.456 135.247V6.80919C400.436 3.51801 403.113 0.840088 406.384 0.840088C409.655 0.840088 412.353 3.51801 412.353 6.80919V135.247C412.353 136.269 413.191 137.128 414.234 137.128C415.277 137.128 416.115 136.29 416.115 135.247V6.80919C416.094 3.51801 418.772 0.840088 422.063 0.840088H472.004C494.919 0.840088 513.583 19.4833 513.583 42.4194C513.583 65.3555 494.94 83.9987 472.004 83.9987C469.653 83.9987 468.201 85.5114 467.608 86.9424C467.016 88.3733 466.995 90.4584 468.651 92.1143L510.046 133.305C512.52 135.779 515.811 137.128 519.307 137.128H523.579L592.183 138.007C610.519 138.007 627.609 130.689 640.283 117.422C652.957 104.155 659.478 86.7175 658.62 68.3196C657.066 34.3652 629.244 6.56389 595.29 4.98984C576.872 4.13127 559.455 10.6523 546.188 23.3264C532.901 36.0006 525.603 53.1106 525.603 71.4472C525.603 94.9761 538.236 116.992 558.555 128.91C559.067 129.217 559.578 129.135 559.823 129.053C560.273 128.91 560.641 128.583 560.845 128.174L561.09 127.643C561.458 126.866 561.172 125.946 560.416 125.517C541.343 114.294 529.487 93.5861 529.487 71.4677C529.487 38.4741 555.264 10.9998 588.156 8.93518C589.709 8.83296 591.222 9.3849 592.387 10.4683C593.552 11.5518 594.207 13.0849 594.207 14.659V15.2722C594.207 18.2772 591.835 20.7916 588.789 20.996C562.317 22.7336 541.589 44.9133 541.589 71.4677C541.589 89.0684 550.522 105.136 565.485 114.458C566.037 114.805 566.691 114.887 567.325 114.703C567.979 114.519 568.49 114.09 568.777 113.476C569.308 112.393 568.94 111.125 567.938 110.471C561.417 106.281 546.229 94.0767 546.229 71.4677C546.229 46.9371 565.404 26.7812 589.893 25.5751C590.997 25.4933 591.978 26.3928 592.04 27.5171C592.101 28.6414 591.222 29.6022 590.098 29.6635C567.795 30.7674 550.317 49.1244 550.317 71.4881C550.317 92.0938 564.198 103.235 570.167 107.057C572.906 108.815 573.908 112.332 572.497 115.255C571.7 116.911 570.228 118.137 568.49 118.648C566.753 119.159 564.893 118.893 563.359 117.953C547.19 107.896 537.521 90.5198 537.521 71.5086C537.521 42.8078 559.946 18.8496 588.544 16.9689C589.444 16.9076 590.139 16.2126 590.139 15.3336V14.7203C590.139 14.2501 589.955 13.8208 589.607 13.4938C589.28 13.1871 588.871 13.044 588.442 13.0645C557.697 15.0065 533.616 40.6818 533.616 71.529C533.616 92.196 544.696 111.555 562.542 122.062C565.117 123.575 566.119 126.743 564.852 129.442L564.606 129.973C563.911 131.445 562.644 132.549 561.09 133.019C559.578 133.489 557.922 133.305 556.552 132.508C534.965 119.875 521.576 96.5093 521.576 71.529C521.576 52.0477 529.344 33.895 543.428 20.4441C557.513 6.99317 576.013 0.0837287 595.535 0.983183C631.575 2.639 661.093 32.1574 662.749 68.1969C663.649 87.7192 656.739 106.219 643.288 120.304C629.837 134.389 611.685 142.157 592.203 142.157L592.142 142.095Z" fill="black"/>
</svg>
