<svg width="346" height="131" viewBox="0 0 346 131" fill="none" xmlns="http://www.w3.org/2000/svg">
<path fill-rule="evenodd" clip-rule="evenodd" d="M173.055 0.00012207C77.4376 0.00012207 0 29.3513 0 65.4901C0 101.629 77.4376 130.869 173.055 130.869C268.673 130.869 346 101.629 346 65.4901C346 29.3513 268.581 0.00012207 173.055 0.00012207ZM173.055 124.192C81.34 124.192 6.80607 98.0778 6.80607 65.5086C6.80607 32.9393 81.34 6.58426 173.055 6.58426C264.771 6.58426 339.416 33.0318 339.416 65.5086C339.416 97.9854 264.993 124.192 173.055 124.192Z" fill="black"/>
<path fill-rule="evenodd" clip-rule="evenodd" d="M141.689 70.3931C142.244 69.043 142.225 67.9148 141.837 67.2675C140.635 65.3071 133.551 63.7165 127.004 73.4818C125.358 75.9416 123.601 79.9549 123.268 82.8586C123.083 84.3012 123.305 86.2616 123.564 87.4083C127.614 85.0965 138.748 77.6616 141.689 70.3931Z" fill="black"/>
<path fill-rule="evenodd" clip-rule="evenodd" d="M173.054 11.4869C84.0204 11.4869 12.0573 35.715 12.0573 65.4916C12.0573 95.2681 84.0204 119.607 173.073 119.607C262.125 119.607 334.199 95.3976 334.199 65.4916C334.199 35.5856 261.995 11.4869 173.054 11.4869ZM83.9094 98.7452C74.1996 98.7452 65.6181 92.383 65.3961 81.0087C65.2852 74.0916 70.8706 65.6025 81.2462 63.0503C82.4668 63.0503 82.9292 63.4941 82.9292 64.16C82.9292 64.6038 82.4853 65.1587 81.4866 65.6025C78.4719 66.7122 73.2379 72.6306 73.2379 78.105C73.2379 82.2293 75.8087 86.816 80.155 87.8148C81.3756 88.1477 82.5038 88.0367 83.6135 88.0367C94.4329 88.0367 106.602 75.8671 119.771 57.3539C117.644 57.4648 108.618 58.4636 106.381 61.0343C105.382 61.8111 104.716 61.3672 104.476 60.4795C104.476 60.2576 104.808 59.4808 105.141 59.0369C108.711 55.0235 119.419 54.1358 121.99 53.7844C131.607 39.0441 143.851 29.6487 147.235 28.9644C147.161 28.9644 147.069 28.9274 146.995 28.9089C138.395 26.893 130.59 25.2285 124.45 25.2285C102.922 25.2285 93.3232 34.4944 93.7671 42.965C93.989 46.4235 96.7818 48.6613 100.906 47.8661C105.363 47.0893 111.615 42.8355 113.187 39.155C113.52 38.3783 114.407 38.2673 114.74 38.4892C115.406 39.0441 115.184 39.8209 115.184 39.8209C114.629 44.1671 107.934 56.2257 96.3194 56.2257C89.8462 56.2257 85.5 50.1964 85.6109 44.2781C85.7219 33.2367 96.9852 22.0659 124.783 22.0659C130.035 22.0659 135.935 22.5098 142.408 23.6194C149.88 24.9511 168.523 28.0767 183.689 28.2986C189.274 28.2986 196.413 28.5205 202.22 27.6328C208.361 26.6341 207.011 26.4121 209.47 26.4121C211.708 26.4121 211.708 27.2999 211.708 28.2061C211.708 31.7756 199.206 38.5817 188.608 38.5817C172.98 38.5817 156.779 31.4982 148.364 29.2234C148.678 29.5193 148.918 30.0186 148.66 30.6659C148.549 30.8879 147.439 32.1085 146.995 32.4599C144.757 34.4759 137.174 39.377 128.926 53.322C135.621 52.9891 143.426 51.639 143.426 51.639C143.426 51.639 142.982 50.1964 142.982 48.9573C143.315 44.1671 146.107 41.2634 149.677 41.8183C151.693 42.1512 153.024 43.8342 153.024 45.6097C153.024 47.5147 151.582 50.2889 150.121 51.639C149.122 52.4158 147.994 53.1926 146.662 53.8769C146.662 55.0975 148.327 56.1147 149.788 56.2257C149.455 57.4464 149.566 58.0197 149.011 57.8902C145.663 57.8902 144.332 54.6536 144.332 54.6536C139.875 55.4304 135.51 55.9853 126.706 56.8915C104.494 92.8268 97.577 98.7267 83.9649 98.7267L83.9094 98.7452ZM271.206 75.4048C269.116 76.6254 267.285 77.7351 265.602 78.6968C265.066 83.0431 263.05 89.9786 255.818 95.638C252.434 98.2828 248.587 100.132 244.592 100.132C238.766 100.132 233.495 96.8957 232.404 90.6444C232.404 90.6444 231.849 92.087 226.689 95.1017C226.245 95.3236 225.154 95.9894 224.821 95.7675C223.822 94.8797 223.286 93.7516 223.175 92.9748C223.508 93.0858 224.155 92.5309 226.245 90.8479C230.314 87.7223 231.183 85.2625 231.183 85.2625C231.35 84.8926 231.572 84.4672 231.775 84.0233C229.611 84.6891 227.373 84.8001 224.47 84.7261C219.846 84.6152 216.998 82.4883 215.574 77.0323C210.303 86.853 210.081 87.1859 204.699 97.4505H195.359L207.343 76.8104C208.879 74.0177 209.655 71.7798 210.192 69.4495C210.525 68.1178 209.526 66.8787 208.102 66.7677C207.436 66.7677 206.567 67.0821 205.605 67.6185C204.181 68.5987 202.35 70.5591 200.094 74.3321C191.105 89.4053 176.069 87.3524 173.369 77.0323C168.098 86.853 167.876 87.1859 162.494 97.4505H153.154L165.138 76.8104C166.673 74.0177 167.45 71.7798 167.987 69.4495C168.32 68.1178 167.321 66.8787 165.897 66.7677C164.362 66.7677 161.828 68.3213 159.405 70.6701C159.405 70.6701 153.246 77.3652 148.752 84.1713C144.461 90.6444 137.1 98.0054 129.092 98.0054C123.266 98.0054 117.995 94.7688 116.904 88.5176C116.904 88.5176 116.349 89.9601 111.189 92.9748C110.745 93.1967 109.654 93.8625 109.321 93.6406C108.322 92.7529 107.786 91.6247 107.675 90.8479C108.008 90.9589 108.655 90.404 110.745 88.721C114.814 85.5954 115.683 83.1356 115.683 83.1356C116.664 81.0087 118.439 77.6611 119.641 75.3308C127.797 59.4993 143.333 59.4253 146.625 63.7901C147.92 65.4916 148.031 67.9144 146.958 70.5776C143.518 79.1037 129.222 87.6668 125.042 90.0156C125.911 90.9958 127.039 91.6617 128.334 91.9576C137.396 94.029 144.813 84.8371 148.364 79.2887C150.823 75.4603 153.45 71.7243 156.464 68.3398C159.608 64.7888 162.827 61.7187 165.582 60.8494C166.47 60.4055 167.339 60.4055 168.227 60.4055C176.476 60.1836 175.366 67.7664 175.366 67.7664C179.768 62.6249 182.838 60.7384 186.907 60.9604C191.308 61.1823 192.844 64.3079 192.844 66.7677C192.733 69.6714 190.643 73.0189 187.018 73.1299C183.837 73.1299 181.969 71.5764 180.97 68.6727C178.88 69.4495 177.9 70.9105 177.456 73.8142C176.846 77.8646 178.529 79.9175 180.378 80.9902C182.394 82.1554 184.872 82.1924 187.055 81.3601C193.472 78.9188 195.451 72.0387 198.688 68.3768C201.832 64.8258 205.05 61.7556 207.806 60.8864C208.694 60.4425 209.563 60.4425 210.451 60.4425C218.699 60.2206 217.59 67.8034 217.59 67.8034C221.991 62.6619 225.061 60.7754 229.13 60.9973C233.532 61.2193 235.067 64.3449 235.067 66.8047C234.956 69.7084 232.866 73.0559 229.241 73.1669C226.06 73.1669 224.192 71.6133 223.193 68.7097C221.104 69.4865 220.123 70.9475 219.679 73.8512C219.014 77.5317 221.769 80.4353 225.283 80.4353C231.183 80.4353 233.828 77.8831 235.992 75.9041C239.154 69.7824 243.168 63.9935 251.749 63.6976C253.284 63.6976 253.728 64.3634 254.061 64.9182C254.949 65.584 254.616 66.9342 254.616 66.9342C248.032 67.9329 245.295 71.8353 242.557 75.6452C240.911 78.105 239.154 82.1184 238.822 85.022C238.156 90.0341 240.468 93.3817 243.871 94.1769C250.251 95.1757 255.522 90.4965 259.702 83.2465C259.961 82.8027 260.164 82.2108 260.331 81.545C258.87 82.1554 257.575 82.5253 256.429 82.5253C252.859 82.5253 250.954 81.1197 250.066 80.1579C248.106 78.0125 247.939 74.739 249.622 72.1682C251.601 68.8021 257.039 66.6937 261.052 67.7294C265.325 68.8391 265.842 72.8895 265.898 74.2211C265.898 74.4615 266.12 74.628 266.36 74.5725C268.358 74.2026 269.541 74.0916 270.688 73.5738C271.705 73.1114 271.021 72.686 272.094 73.5183C272.445 73.7957 272.427 74.776 271.243 75.4788L271.206 75.4048Z" fill="black"/>
<path fill-rule="evenodd" clip-rule="evenodd" d="M259.796 72.4795C259.501 72.4055 259.168 72.3685 258.816 72.3685C256.874 72.3685 254.433 73.5152 253.786 74.6619L253.693 74.8283C253.342 75.3462 253.12 76.1415 253.638 76.6963C254.34 77.4731 256.634 78.0279 260.925 76.6593C260.962 76.012 260.98 75.4017 260.98 74.8283V74.181C260.943 73.0158 260.518 72.6829 259.815 72.498L259.796 72.4795Z" fill="black"/>
<path fill-rule="evenodd" clip-rule="evenodd" d="M148.863 49.657C149.529 48.9912 150.657 46.9753 150.417 45.6437C150.306 44.9779 149.973 44.2011 149.196 44.3121C147.513 44.645 146.514 45.4217 146.07 47.1048C145.516 48.8988 145.738 50.1194 146.07 51.451C146.07 51.451 147.18 51.562 148.863 49.657Z" fill="black"/>
</svg>
