<svg width="381" height="119" viewBox="0 0 381 119" fill="none" xmlns="http://www.w3.org/2000/svg">
<path d="M41.9938 118.368V108.517H49.3075C50.6479 108.517 51.8582 108.608 52.9318 108.797C54.0055 108.985 54.9164 109.272 55.6712 109.656C56.426 110.046 57.0051 110.534 57.4085 111.126C57.812 111.718 58.0072 112.421 58.0072 113.234C58.0072 114.165 57.799 114.952 57.3825 115.603C56.9661 116.253 56.374 116.781 55.5996 117.19C54.8253 117.6 53.9013 117.9 52.8082 118.088C51.7216 118.277 50.5048 118.368 49.1644 118.368H41.9873H41.9938ZM47.4531 116.071H48.6113C49.8736 116.071 50.8496 115.863 51.5264 115.44C52.2031 115.024 52.5479 114.347 52.5479 113.416C52.5479 112.902 52.4763 112.479 52.3267 112.141C52.177 111.803 51.9428 111.536 51.6174 111.341C51.2921 111.146 50.8757 111.009 50.3551 110.931C49.8411 110.853 49.2164 110.814 48.4942 110.814H47.4531V116.071Z" fill="#221F20"/>
<path d="M58.8669 118.368V108.517H72.4532V110.814H64.3261V112.226H71.1973V114.523H64.3261V116.071H72.772V118.368H58.8604H58.8669Z" fill="#221F20"/>
<path d="M82.7272 111.379C82.6816 111.204 82.5905 111.067 82.4474 110.963C82.3108 110.859 82.1416 110.774 81.9399 110.709C81.556 110.592 81.081 110.534 80.5279 110.534C79.9292 110.534 79.4868 110.579 79.207 110.677C78.9272 110.774 78.7905 110.911 78.7905 111.093C78.7905 111.275 78.9272 111.425 79.207 111.542C79.4868 111.659 79.8447 111.763 80.2936 111.854C80.7426 111.946 81.2501 112.03 81.8227 112.108C82.3953 112.186 82.981 112.277 83.5796 112.375C84.1847 112.473 84.7703 112.596 85.3364 112.739C85.909 112.883 86.4166 113.065 86.8655 113.286C87.3145 113.507 87.6789 113.78 87.9522 114.093C88.232 114.405 88.3686 114.789 88.3686 115.238C88.3686 115.811 88.1734 116.312 87.7895 116.735C87.4056 117.158 86.8655 117.509 86.1823 117.789C85.4926 118.069 84.6727 118.277 83.7162 118.42C82.7597 118.563 81.7121 118.635 80.5669 118.635C79.4217 118.635 78.4782 118.543 77.5803 118.368C76.6823 118.192 75.9145 117.951 75.2768 117.652C74.6392 117.353 74.1316 117.001 73.7738 116.604C73.4094 116.208 73.2142 115.785 73.1816 115.336H78.4131C78.5238 115.681 78.8231 115.941 79.3176 116.116C79.5323 116.201 79.7796 116.26 80.0594 116.299C80.3392 116.338 80.606 116.357 80.8727 116.357C81.569 116.357 82.1155 116.299 82.5255 116.175C82.9354 116.051 83.1371 115.869 83.1371 115.635C83.1371 115.401 82.9029 115.199 82.4344 115.069C81.9659 114.939 81.3738 114.815 80.6645 114.711C79.9553 114.607 79.181 114.49 78.3481 114.366C77.5152 114.242 76.7409 114.067 76.0316 113.839C75.3224 113.611 74.7303 113.305 74.2618 112.922C73.7933 112.538 73.5525 112.03 73.5525 111.405C73.5525 110.885 73.7347 110.429 74.0991 110.033C74.4635 109.636 74.9645 109.31 75.6022 109.05C76.2399 108.79 77.0012 108.595 77.8796 108.464C78.758 108.334 79.721 108.263 80.7751 108.263C81.9334 108.263 82.9354 108.347 83.7813 108.51C84.6272 108.673 85.3429 108.9 85.9221 109.18C86.5012 109.466 86.9501 109.792 87.2755 110.169C87.6008 110.547 87.809 110.95 87.9001 111.379H82.7142H82.7272Z" fill="#221F20"/>
<path d="M89.5068 118.368V108.517H94.9661V118.368H89.5068Z" fill="#221F20"/>
<path d="M113.095 118.4H109.575L109.367 117.431C109.132 117.587 108.872 117.737 108.566 117.88C108.267 118.023 107.909 118.153 107.499 118.264C107.089 118.374 106.621 118.465 106.1 118.53C105.573 118.602 104.987 118.635 104.343 118.635C103.276 118.635 102.261 118.53 101.285 118.329C100.309 118.127 99.4501 117.808 98.7018 117.392C97.9535 116.975 97.3614 116.448 96.9189 115.811C96.4764 115.173 96.2617 114.431 96.2617 113.572C96.2617 112.785 96.4634 112.069 96.8603 111.419C97.2638 110.768 97.8429 110.208 98.5977 109.74C99.3525 109.278 100.27 108.913 101.35 108.653C102.43 108.393 103.64 108.263 104.981 108.263C105.983 108.263 106.926 108.341 107.805 108.497C108.683 108.653 109.471 108.881 110.167 109.187C110.863 109.492 111.442 109.87 111.917 110.332C112.386 110.787 112.705 111.314 112.88 111.92H107.694C107.493 111.51 107.154 111.197 106.673 110.989C106.191 110.781 105.599 110.677 104.89 110.677C104.35 110.677 103.881 110.748 103.491 110.885C103.1 111.022 102.769 111.217 102.508 111.471C102.248 111.724 102.046 112.03 101.916 112.382C101.786 112.733 101.721 113.13 101.721 113.566C101.721 113.911 101.773 114.249 101.884 114.574C101.994 114.9 102.176 115.186 102.437 115.427C102.697 115.674 103.055 115.869 103.504 116.012C103.953 116.155 104.525 116.234 105.215 116.234C105.495 116.234 105.781 116.208 106.081 116.149C106.38 116.097 106.66 116.019 106.926 115.915C107.187 115.817 107.414 115.693 107.61 115.557C107.805 115.42 107.935 115.264 108.013 115.095H105.606V112.961H113.082V118.407L113.095 118.4Z" fill="#221F20"/>
<path d="M125.912 113.898L125.704 111.653V108.517H130.936V118.368H125.821L119.874 113.007L120.082 115.251V118.375H114.851V108.523H119.965L125.912 113.904V113.898Z" fill="#221F20"/>
<path d="M132.908 118.368V108.517H146.494V110.814H138.367V112.226H145.238V114.523H138.367V116.071H146.813V118.368H132.901H132.908Z" fill="#221F20"/>
<path d="M153.346 114.933V118.368H147.887V108.517H155.753C157.139 108.517 158.304 108.575 159.248 108.686C160.191 108.803 160.946 108.972 161.525 109.2C162.104 109.428 162.514 109.721 162.761 110.078C163.009 110.436 163.132 110.846 163.132 111.321C163.132 111.887 162.911 112.388 162.462 112.831C162.013 113.273 161.304 113.573 160.334 113.729C160.764 113.826 161.161 113.931 161.512 114.022C161.87 114.119 162.163 114.256 162.404 114.432C162.644 114.607 162.826 114.848 162.957 115.147C163.087 115.447 163.152 115.844 163.152 116.338V117.145C163.152 117.366 163.165 117.542 163.197 117.678C163.23 117.815 163.282 117.913 163.36 117.971C163.438 118.03 163.562 118.062 163.731 118.062V118.362H158.2C158.122 118.251 158.057 118.049 158.005 117.744C157.953 117.444 157.927 117.073 157.927 116.637C157.927 116.319 157.894 116.052 157.836 115.831C157.771 115.609 157.64 115.434 157.432 115.303C157.224 115.173 156.925 115.076 156.541 115.017C156.157 114.959 155.643 114.926 155.012 114.926H153.346V114.933ZM153.346 112.772H155.5C156.346 112.772 156.99 112.701 157.432 112.564C157.875 112.427 158.089 112.187 158.089 111.842C158.089 111.497 157.888 111.237 157.478 111.068C157.068 110.898 156.541 110.814 155.89 110.814H153.346V112.772Z" fill="#221F20"/>
<path d="M173.386 111.379C173.341 111.204 173.25 111.067 173.107 110.963C172.97 110.859 172.801 110.774 172.599 110.709C172.215 110.592 171.74 110.534 171.187 110.534C170.588 110.534 170.146 110.579 169.866 110.677C169.586 110.774 169.45 110.911 169.45 111.093C169.45 111.275 169.586 111.425 169.866 111.542C170.146 111.659 170.504 111.763 170.953 111.854C171.402 111.946 171.909 112.03 172.482 112.108C173.055 112.186 173.64 112.277 174.239 112.375C174.844 112.473 175.43 112.596 175.996 112.739C176.568 112.883 177.076 113.065 177.525 113.286C177.974 113.507 178.338 113.78 178.611 114.093C178.891 114.405 179.028 114.789 179.028 115.238C179.028 115.811 178.833 116.312 178.449 116.735C178.065 117.158 177.525 117.509 176.842 117.789C176.152 118.069 175.332 118.277 174.375 118.42C173.419 118.563 172.371 118.635 171.226 118.635C170.081 118.635 169.137 118.543 168.239 118.368C167.342 118.192 166.574 117.951 165.936 117.652C165.298 117.353 164.791 117.001 164.433 116.604C164.069 116.208 163.873 115.785 163.841 115.336H169.072C169.183 115.681 169.482 115.941 169.977 116.116C170.192 116.201 170.439 116.26 170.719 116.299C170.998 116.338 171.265 116.357 171.532 116.357C172.228 116.357 172.775 116.299 173.185 116.175C173.595 116.051 173.796 115.869 173.796 115.635C173.796 115.401 173.562 115.199 173.094 115.069C172.625 114.939 172.033 114.815 171.324 114.711C170.614 114.607 169.84 114.49 169.007 114.366C168.174 114.242 167.4 114.067 166.691 113.839C165.982 113.611 165.389 113.305 164.921 112.922C164.452 112.538 164.212 112.03 164.212 111.405C164.212 110.885 164.394 110.429 164.758 110.033C165.123 109.636 165.624 109.31 166.261 109.05C166.899 108.79 167.66 108.595 168.539 108.464C169.417 108.334 170.38 108.263 171.434 108.263C172.593 108.263 173.595 108.347 174.44 108.51C175.286 108.673 176.002 108.9 176.581 109.18C177.16 109.466 177.609 109.792 177.935 110.169C178.26 110.547 178.468 110.95 178.559 111.379H173.373H173.386Z" fill="#221F20"/>
<path d="M184.981 118.368L190.955 108.517H196.512L202.485 118.368H197.045L196.394 117.067H190.955L190.33 118.368H184.981ZM193.681 111.484L191.989 115.017H195.438L193.681 111.484Z" fill="#221F20"/>
<path d="M211.647 111.379C211.602 111.204 211.51 111.067 211.367 110.963C211.231 110.859 211.061 110.774 210.86 110.709C210.476 110.592 210.001 110.534 209.448 110.534C208.849 110.534 208.407 110.579 208.127 110.677C207.847 110.774 207.71 110.911 207.71 111.093C207.71 111.275 207.847 111.425 208.127 111.542C208.407 111.659 208.765 111.763 209.214 111.854C209.663 111.946 210.17 112.03 210.743 112.108C211.315 112.186 211.901 112.277 212.499 112.375C213.105 112.473 213.69 112.596 214.256 112.739C214.829 112.883 215.336 113.065 215.785 113.286C216.234 113.507 216.599 113.78 216.872 114.093C217.152 114.405 217.289 114.789 217.289 115.238C217.289 115.811 217.093 116.312 216.709 116.735C216.326 117.158 215.785 117.509 215.102 117.789C214.413 118.069 213.593 118.277 212.636 118.42C211.68 118.563 210.632 118.635 209.487 118.635C208.342 118.635 207.398 118.543 206.5 118.368C205.602 118.192 204.834 117.951 204.197 117.652C203.559 117.353 203.052 117.001 202.694 116.604C202.329 116.208 202.134 115.785 202.102 115.336H207.333C207.444 115.681 207.743 115.941 208.238 116.116C208.452 116.201 208.7 116.26 208.979 116.299C209.259 116.338 209.526 116.357 209.793 116.357C210.489 116.357 211.035 116.299 211.445 116.175C211.855 116.051 212.057 115.869 212.057 115.635C212.057 115.401 211.823 115.199 211.354 115.069C210.886 114.939 210.294 114.815 209.584 114.711C208.875 114.607 208.101 114.49 207.268 114.366C206.435 114.242 205.661 114.067 204.952 113.839C204.242 113.611 203.65 113.305 203.182 112.922C202.713 112.538 202.472 112.03 202.472 111.405C202.472 110.885 202.655 110.429 203.019 110.033C203.383 109.636 203.884 109.31 204.522 109.05C205.16 108.79 205.921 108.595 206.8 108.464C207.678 108.334 208.641 108.263 209.695 108.263C210.853 108.263 211.855 108.347 212.701 108.51C213.547 108.673 214.263 108.9 214.842 109.18C215.421 109.466 215.87 109.792 216.195 110.169C216.521 110.547 216.729 110.95 216.82 111.379H211.634H211.647Z" fill="#221F20"/>
<path d="M226.971 111.379C226.926 111.204 226.835 111.067 226.692 110.963C226.555 110.859 226.386 110.774 226.184 110.709C225.8 110.592 225.325 110.534 224.772 110.534C224.173 110.534 223.731 110.579 223.451 110.677C223.171 110.774 223.035 110.911 223.035 111.093C223.035 111.275 223.171 111.425 223.451 111.542C223.731 111.659 224.089 111.763 224.538 111.854C224.987 111.946 225.494 112.03 226.067 112.108C226.639 112.186 227.225 112.277 227.824 112.375C228.429 112.473 229.014 112.596 229.581 112.739C230.153 112.883 230.661 113.065 231.11 113.286C231.559 113.507 231.923 113.78 232.196 114.093C232.476 114.405 232.613 114.789 232.613 115.238C232.613 115.811 232.418 116.312 232.034 116.735C231.65 117.158 231.11 117.509 230.426 117.789C229.737 118.069 228.917 118.277 227.96 118.42C227.004 118.563 225.956 118.635 224.811 118.635C223.666 118.635 222.722 118.543 221.824 118.368C220.926 118.192 220.159 117.951 219.521 117.652C218.883 117.353 218.376 117.001 218.018 116.604C217.654 116.208 217.458 115.785 217.426 115.336H222.657C222.768 115.681 223.067 115.941 223.562 116.116C223.776 116.201 224.024 116.26 224.304 116.299C224.583 116.338 224.85 116.357 225.117 116.357C225.813 116.357 226.36 116.299 226.77 116.175C227.18 116.051 227.381 115.869 227.381 115.635C227.381 115.401 227.147 115.199 226.679 115.069C226.21 114.939 225.618 114.815 224.909 114.711C224.199 114.607 223.425 114.49 222.592 114.366C221.759 114.242 220.985 114.067 220.276 113.839C219.567 113.611 218.974 113.305 218.506 112.922C218.037 112.538 217.797 112.03 217.797 111.405C217.797 110.885 217.979 110.429 218.343 110.033C218.708 109.636 219.209 109.31 219.846 109.05C220.484 108.79 221.245 108.595 222.124 108.464C223.002 108.334 223.965 108.263 225.019 108.263C226.178 108.263 227.18 108.347 228.025 108.51C228.871 108.673 229.587 108.9 230.166 109.18C230.745 109.466 231.194 109.792 231.52 110.169C231.845 110.547 232.053 110.95 232.144 111.379H226.958H226.971Z" fill="#221F20"/>
<path d="M241.618 108.257C243.102 108.257 244.39 108.4 245.496 108.692C246.603 108.985 247.507 109.369 248.229 109.851C248.945 110.332 249.485 110.879 249.836 111.49C250.194 112.109 250.37 112.74 250.37 113.384C250.37 114.223 250.149 114.972 249.7 115.622C249.251 116.273 248.633 116.82 247.845 117.262C247.058 117.704 246.134 118.043 245.067 118.277C244 118.511 242.855 118.628 241.618 118.628C240.304 118.628 239.113 118.511 238.039 118.277C236.966 118.043 236.048 117.704 235.287 117.249C234.526 116.8 233.934 116.247 233.517 115.596C233.101 114.946 232.893 114.197 232.893 113.358C232.893 112.584 233.107 111.881 233.53 111.256C233.953 110.632 234.552 110.098 235.313 109.649C236.074 109.2 236.992 108.855 238.066 108.614C239.139 108.374 240.323 108.25 241.618 108.25V108.257ZM241.573 110.664C240.955 110.664 240.441 110.749 240.024 110.918C239.608 111.087 239.276 111.302 239.029 111.562C238.781 111.822 238.606 112.115 238.508 112.44C238.41 112.766 238.358 113.085 238.358 113.39C238.358 113.696 238.404 114.035 238.495 114.366C238.586 114.698 238.755 115.004 239.003 115.277C239.25 115.551 239.588 115.778 240.011 115.954C240.434 116.13 240.974 116.221 241.618 116.221C242.204 116.221 242.705 116.149 243.121 116.006C243.538 115.863 243.876 115.668 244.143 115.408C244.403 115.154 244.598 114.854 244.722 114.51C244.846 114.165 244.904 113.794 244.904 113.377C244.904 113.039 244.839 112.707 244.722 112.382C244.598 112.056 244.403 111.757 244.143 111.497C243.883 111.237 243.538 111.028 243.115 110.872C242.692 110.716 242.178 110.645 241.573 110.651V110.664Z" fill="#221F20"/>
<path d="M261.892 112.278C261.814 111.757 261.515 111.36 261.001 111.08C260.487 110.801 259.791 110.664 258.932 110.664C257.962 110.664 257.201 110.905 256.661 111.38C256.121 111.861 255.848 112.577 255.848 113.533C255.848 113.878 255.887 114.217 255.978 114.542C256.062 114.867 256.218 115.154 256.453 115.394C256.687 115.642 257.019 115.837 257.448 115.993C257.878 116.143 258.444 116.221 259.14 116.221C260.018 116.221 260.682 116.058 261.118 115.739C261.561 115.42 261.834 115.023 261.938 114.548H267.189C267.065 115.186 266.786 115.759 266.356 116.26C265.927 116.761 265.367 117.19 264.677 117.542C263.988 117.893 263.187 118.16 262.257 118.348C261.333 118.537 260.318 118.628 259.225 118.628C257.852 118.628 256.615 118.505 255.522 118.264C254.429 118.023 253.499 117.678 252.731 117.223C251.97 116.774 251.384 116.227 250.98 115.59C250.577 114.952 250.382 114.23 250.382 113.429C250.382 112.629 250.597 111.92 251.033 111.282C251.468 110.644 252.054 110.098 252.802 109.655C253.551 109.206 254.429 108.861 255.438 108.621C256.446 108.38 257.533 108.256 258.691 108.256C261.235 108.256 263.213 108.608 264.625 109.317C266.037 110.026 266.851 111.009 267.065 112.278H261.879H261.892Z" fill="#221F20"/>
<path d="M268.257 118.368V108.517H273.716V118.368H268.257Z" fill="#221F20"/>
<path d="M274.366 118.368L280.339 108.517H285.896L291.87 118.368H286.43L285.779 117.067H280.339L279.715 118.368H274.366ZM283.066 111.484L281.374 115.017H284.823L283.066 111.484Z" fill="#221F20"/>
<path d="M292.234 118.368V108.517H299.548C300.888 108.517 302.098 108.608 303.172 108.797C304.246 108.985 305.157 109.272 305.911 109.656C306.666 110.046 307.245 110.534 307.649 111.126C308.052 111.718 308.247 112.421 308.247 113.234C308.247 114.165 308.039 114.952 307.623 115.603C307.206 116.253 306.614 116.781 305.84 117.19C305.066 117.6 304.142 117.9 303.048 118.088C301.962 118.277 300.745 118.368 299.405 118.368H292.228H292.234ZM297.693 116.071H298.852C300.114 116.071 301.09 115.863 301.767 115.44C302.443 115.024 302.788 114.347 302.788 113.416C302.788 112.902 302.717 112.479 302.567 112.141C302.417 111.803 302.183 111.536 301.858 111.341C301.532 111.146 301.116 111.009 300.595 110.931C300.081 110.853 299.457 110.814 298.734 110.814H297.693V116.071Z" fill="#221F20"/>
<path d="M316.98 108.257C318.463 108.257 319.752 108.4 320.858 108.692C321.964 108.985 322.868 109.369 323.591 109.851C324.306 110.332 324.846 110.879 325.198 111.49C325.556 112.109 325.731 112.74 325.731 113.384C325.731 114.223 325.51 114.972 325.061 115.622C324.612 116.273 323.994 116.82 323.207 117.262C322.419 117.704 321.495 118.043 320.428 118.277C319.361 118.511 318.216 118.628 316.98 118.628C315.665 118.628 314.474 118.511 313.401 118.277C312.327 118.043 311.41 117.704 310.648 117.249C309.887 116.8 309.295 116.247 308.879 115.596C308.462 114.946 308.254 114.197 308.254 113.358C308.254 112.584 308.469 111.881 308.892 111.256C309.315 110.632 309.913 110.098 310.674 109.649C311.436 109.2 312.353 108.855 313.427 108.614C314.5 108.374 315.685 108.25 316.98 108.25V108.257ZM316.934 110.664C316.316 110.664 315.802 110.749 315.385 110.918C314.969 111.087 314.637 111.302 314.39 111.562C314.143 111.822 313.967 112.115 313.869 112.44C313.772 112.766 313.72 113.085 313.72 113.39C313.72 113.696 313.765 114.035 313.856 114.366C313.947 114.698 314.117 115.004 314.364 115.277C314.611 115.551 314.949 115.778 315.372 115.954C315.795 116.13 316.335 116.221 316.98 116.221C317.565 116.221 318.066 116.149 318.483 116.006C318.899 115.863 319.237 115.668 319.504 115.408C319.765 115.154 319.96 114.854 320.083 114.51C320.207 114.165 320.266 113.794 320.266 113.377C320.266 113.039 320.2 112.707 320.083 112.382C319.96 112.056 319.765 111.757 319.504 111.497C319.244 111.237 318.899 111.028 318.476 110.872C318.053 110.716 317.539 110.645 316.934 110.651V110.664Z" fill="#221F20"/>
<path d="M335.545 111.379C335.499 111.204 335.408 111.067 335.265 110.963C335.128 110.859 334.959 110.774 334.757 110.709C334.373 110.592 333.898 110.534 333.345 110.534C332.747 110.534 332.304 110.579 332.024 110.677C331.745 110.774 331.608 110.911 331.608 111.093C331.608 111.275 331.745 111.425 332.024 111.542C332.304 111.659 332.662 111.763 333.111 111.854C333.56 111.946 334.068 112.03 334.64 112.108C335.213 112.186 335.798 112.277 336.397 112.375C337.002 112.473 337.588 112.596 338.154 112.739C338.726 112.883 339.234 113.065 339.683 113.286C340.132 113.507 340.496 113.78 340.77 114.093C341.049 114.405 341.186 114.789 341.186 115.238C341.186 115.811 340.991 116.312 340.607 116.735C340.223 117.158 339.683 117.509 339 117.789C338.31 118.069 337.49 118.277 336.534 118.42C335.577 118.563 334.529 118.635 333.384 118.635C332.239 118.635 331.296 118.543 330.398 118.368C329.5 118.192 328.732 117.951 328.094 117.652C327.457 117.353 326.949 117.001 326.591 116.604C326.227 116.208 326.032 115.785 325.999 115.336H331.231C331.341 115.681 331.64 115.941 332.135 116.116C332.35 116.201 332.597 116.26 332.877 116.299C333.157 116.338 333.423 116.357 333.69 116.357C334.386 116.357 334.933 116.299 335.343 116.175C335.753 116.051 335.955 115.869 335.955 115.635C335.955 115.401 335.72 115.199 335.252 115.069C334.783 114.939 334.191 114.815 333.482 114.711C332.773 114.607 331.998 114.49 331.165 114.366C330.333 114.242 329.558 114.067 328.849 113.839C328.14 113.611 327.548 113.305 327.079 112.922C326.611 112.538 326.37 112.03 326.37 111.405C326.37 110.885 326.552 110.429 326.916 110.033C327.281 109.636 327.782 109.31 328.42 109.05C329.057 108.79 329.819 108.595 330.697 108.464C331.575 108.334 332.538 108.263 333.593 108.263C334.751 108.263 335.753 108.347 336.599 108.51C337.445 108.673 338.16 108.9 338.739 109.18C339.319 109.466 339.768 109.792 340.093 110.169C340.418 110.547 340.626 110.95 340.717 111.379H335.532H335.545Z" fill="#221F20"/>
<path d="M0.667969 85.7231L16.1348 2.27271H84.2224L80.7673 21.4289H40.8543L38.0954 36.4727H73.4536L69.8618 55.5118H34.5036L28.8426 85.7166H0.667969V85.7231Z" fill="#0A0A0A"/>
<path d="M65.8542 85.7231L81.3209 2.27271H152.168L148.712 21.4289H106.04L103.692 34.0066H142.088L138.633 52.6943H100.236L97.6141 66.209H141.672L138.08 85.7231H65.8477H65.8542Z" fill="#0A0A0A"/>
<path d="M133.382 85.7231L148.849 2.27271H190.558C211.549 2.27271 226.605 15.6703 222.597 35.3015L222.181 37.0648C220.248 46.233 213.754 53.6378 202.569 57.2816L214.724 85.7231H185.586L175.917 59.8648H166.111L161.277 85.7231H133.382ZM169.703 40.4679H182.548C189.041 40.4679 193.323 38.3532 194.286 33.2974L194.423 32.2367C195.802 25.1833 191.247 21.5395 184.343 21.5395H173.295L169.703 40.4614V40.4679Z" fill="#0A0A0A"/>
<path d="M207.82 85.7231L223.287 2.27271H264.996C285.987 2.27271 301.044 15.6703 297.036 35.3015L296.619 37.0648C294.687 46.233 288.193 53.6378 277.008 57.2816L289.162 85.7231H260.025L250.356 59.8648H240.55L235.715 85.7231H207.82ZM244.142 40.4679H256.986C263.48 40.4679 267.761 38.3532 268.724 33.2974L268.861 32.2367C270.241 25.1833 265.686 21.5395 258.782 21.5395H247.733L244.142 40.4614V40.4679Z" fill="#0A0A0A"/>
<path d="M287.509 43.9947L288.615 37.7676C292.071 14.9676 309.606 0.743652 336.122 0.743652C368.162 0.743652 383.628 19.4313 379.9 44.0012L378.794 50.2283C375.202 73.0283 357.939 87.2522 331.424 87.2522C299.384 87.2522 283.774 68.5646 287.503 44.0012L287.509 43.9947ZM350.073 49.9875L351.595 41.6392C353.808 27.4152 348.14 20.0104 335.575 20.0104C325.216 20.0104 319.139 26.0032 317.206 37.9954L315.827 46.3437C313.615 60.5676 319.282 67.9724 331.847 67.9724C342.206 67.9724 348.283 61.9796 350.079 49.9875H350.073Z" fill="#0A0A0A"/>
</svg>
