<?xml version="1.0" standalone="no"?>
<!DOCTYPE svg PUBLIC "-//W3C//DTD SVG 20010904//EN"
 "http://www.w3.org/TR/2001/REC-SVG-20010904/DTD/svg10.dtd">
<svg version="1.0" xmlns="http://www.w3.org/2000/svg"
 width="500.000000pt" height="500.000000pt" viewBox="0 0 500.000000 500.000000"
 preserveAspectRatio="xMidYMid meet">
<metadata>
Created by potrace 1.14, written by Peter Selinger 2001-2017
</metadata>
<g transform="translate(0.000000,500.000000) scale(0.100000,-0.100000)"
fill="#000000" stroke="none">
<path d="M88 3506 c-54 -27 -79 -62 -85 -120 -9 -81 42 -158 115 -173 15 -3
1089 -6 2387 -7 1809 -1 2367 2 2395 11 19 7 50 29 67 49 29 33 33 44 33 97 0
76 -27 122 -84 147 -39 17 -163 18 -2414 18 l-2373 0 -41 -22z"/>
<path d="M165 3092 c-63 -6 -110 -31 -138 -74 -24 -37 -28 -51 -24 -96 4 -59
26 -95 77 -129 l32 -23 932 1 c697 0 940 3 966 12 19 7 47 29 65 53 26 34 31
49 30 90 -1 69 -26 115 -78 142 l-42 23 -895 2 c-492 1 -908 1 -925 -1z"/>
<path d="M122 2649 c-9 -4 -20 -5 -24 -3 -3 2 -24 -14 -47 -36 -81 -81 -63
-207 37 -257 36 -18 110 -18 2422 -18 l2385 0 35 22 c51 31 70 70 70 140 0 50
-5 66 -27 95 -16 20 -44 42 -63 49 -29 11 -466 13 -2403 14 -1302 0 -2375 -3
-2385 -6z"/>
<path d="M238 2225 c-1 -2 -30 -5 -63 -6 -69 -3 -104 -18 -139 -59 -66 -80
-32 -215 64 -252 38 -15 1866 -13 1905 2 72 27 113 103 100 182 -8 46 -72 118
-106 118 -11 0 -29 5 -39 10 -11 6 -21 6 -25 1 -3 -6 -17 -6 -34 -1 -16 4 -32
6 -35 2 -4 -3 -23 -5 -44 -4 -64 3 -107 4 -114 2 -20 -5 -77 -3 -92 3 -10 4
-23 4 -29 0 -6 -3 -31 -5 -56 -4 -25 1 -53 1 -61 1 -27 0 -143 1 -149 2 -3 0
-10 -1 -16 -2 -5 -1 -28 -1 -50 -1 -97 2 -141 2 -150 1 -25 -4 -94 -2 -102 3
-5 3 -15 2 -22 -3 -8 -4 -26 -4 -42 0 -15 5 -30 6 -33 2 -4 -3 -23 -5 -44 -4
-64 3 -107 4 -114 2 -20 -5 -77 -3 -92 3 -10 4 -23 4 -29 0 -6 -3 -31 -5 -56
-4 -25 1 -53 1 -61 1 -27 0 -143 1 -149 2 -3 0 -9 -1 -13 -2 -18 -4 -76 -3
-90 3 -9 3 -18 4 -20 2z"/>
<path d="M155 1779 c-27 -3 -61 -11 -75 -18 -91 -46 -106 -186 -29 -256 45
-39 77 -45 239 -45 80 0 152 -1 160 -1 14 0 688 -1 720 0 23 0 223 0 240 0
213 -4 576 4 598 13 45 19 91 77 98 124 13 86 -53 177 -133 183 -73 6 -1768 6
-1818 0z"/>
</g>
</svg>
